<svg width="1547" height="35" viewBox="0 0 1547 35" fill="none" xmlns="http://www.w3.org/2000/svg">
<rect width="1547" height="35" fill="#700611"/>
<path d="M20.9734 24V22.5724L24.7607 18.8597C25.1229 18.494 25.4247 18.169 25.6662 17.8849C25.9077 17.6009 26.0888 17.3256 26.2095 17.0593C26.3303 16.793 26.3906 16.5089 26.3906 16.207C26.3906 15.8626 26.3125 15.5678 26.1562 15.3228C26 15.0742 25.7852 14.8825 25.5117 14.7475C25.2383 14.6126 24.9276 14.5451 24.5795 14.5451C24.2209 14.5451 23.9066 14.6197 23.6367 14.7688C23.3668 14.9144 23.1573 15.1222 23.0082 15.392C22.8626 15.6619 22.7898 15.9833 22.7898 16.3562H20.9094C20.9094 15.6637 21.0675 15.0618 21.3835 14.5504C21.6996 14.0391 22.1346 13.6431 22.6886 13.3626C23.2461 13.082 23.8853 12.9418 24.6062 12.9418C25.3377 12.9418 25.9805 13.0785 26.5344 13.3519C27.0884 13.6254 27.5181 14 27.8235 14.4759C28.1325 14.9517 28.2869 15.495 28.2869 16.1058C28.2869 16.5142 28.2088 16.9155 28.0526 17.3097C27.8963 17.7038 27.6211 18.1406 27.2269 18.62C26.8363 19.0994 26.2876 19.68 25.581 20.3619L23.7006 22.2741V22.3487H28.4521V24H20.9734ZM34.3221 24.2077C33.445 24.2077 32.6921 23.9858 32.0636 23.5419C31.4386 23.0945 30.9574 22.4499 30.62 21.6083C30.2862 20.7631 30.1193 19.7457 30.1193 18.5561C30.1229 17.3665 30.2915 16.3544 30.6254 15.5199C30.9627 14.6818 31.4439 14.0426 32.0689 13.6023C32.6974 13.1619 33.4485 12.9418 34.3221 12.9418C35.1957 12.9418 35.9467 13.1619 36.5753 13.6023C37.2038 14.0426 37.685 14.6818 38.0188 15.5199C38.3562 16.358 38.5249 17.37 38.5249 18.5561C38.5249 19.7493 38.3562 20.7685 38.0188 21.6136C37.685 22.4553 37.2038 23.098 36.5753 23.5419C35.9503 23.9858 35.1992 24.2077 34.3221 24.2077ZM34.3221 22.5405C35.0039 22.5405 35.5419 22.2049 35.9361 21.5337C36.3338 20.859 36.5327 19.8665 36.5327 18.5561C36.5327 17.6896 36.4421 16.9616 36.261 16.3722C36.0799 15.7827 35.8242 15.3388 35.494 15.0405C35.1637 14.7386 34.7731 14.5877 34.3221 14.5877C33.6438 14.5877 33.1076 14.9251 32.7134 15.5998C32.3192 16.271 32.1204 17.2564 32.1168 18.5561C32.1133 19.4261 32.2003 20.1577 32.3778 20.7507C32.5589 21.3437 32.8146 21.7912 33.1449 22.093C33.4751 22.3913 33.8675 22.5405 34.3221 22.5405ZM40.2947 24V22.5724L44.0819 18.8597C44.4442 18.494 44.746 18.169 44.9875 17.8849C45.229 17.6009 45.4101 17.3256 45.5308 17.0593C45.6515 16.793 45.7119 16.5089 45.7119 16.207C45.7119 15.8626 45.6338 15.5678 45.4775 15.3228C45.3213 15.0742 45.1064 14.8825 44.833 14.7475C44.5596 14.6126 44.2488 14.5451 43.9008 14.5451C43.5422 14.5451 43.2279 14.6197 42.958 14.7688C42.6881 14.9144 42.4786 15.1222 42.3295 15.392C42.1839 15.6619 42.1111 15.9833 42.1111 16.3562H40.2307C40.2307 15.6637 40.3888 15.0618 40.7048 14.5504C41.0209 14.0391 41.4559 13.6431 42.0099 13.3626C42.5674 13.082 43.2066 12.9418 43.9275 12.9418C44.659 12.9418 45.3018 13.0785 45.8557 13.3519C46.4097 13.6254 46.8394 14 47.1448 14.4759C47.4537 14.9517 47.6082 15.495 47.6082 16.1058C47.6082 16.5142 47.5301 16.9155 47.3738 17.3097C47.2176 17.7038 46.9424 18.1406 46.5482 18.62C46.1576 19.0994 45.6089 19.68 44.9023 20.3619L43.0219 22.2741V22.3487H47.7733V24H40.2947ZM53.5262 24.1491C52.7591 24.1491 52.0773 24.0178 51.4807 23.755C50.8877 23.4922 50.4189 23.1264 50.0745 22.6577C49.73 22.1889 49.5471 21.6474 49.5258 21.033H51.5287C51.5464 21.3278 51.6441 21.5852 51.8216 21.8054C51.9992 22.022 52.2354 22.1907 52.5301 22.3114C52.8248 22.4322 53.1551 22.4925 53.5209 22.4925C53.9115 22.4925 54.2577 22.4251 54.5596 22.2901C54.8614 22.1516 55.0976 21.9599 55.268 21.7148C55.4385 21.4698 55.5219 21.1875 55.5184 20.8679C55.5219 20.5376 55.4367 20.2464 55.2627 19.9943C55.0887 19.7422 54.8366 19.5451 54.5063 19.4031C54.1796 19.261 53.7854 19.19 53.3238 19.19H52.3596V17.6665H53.3238C53.7037 17.6665 54.0358 17.6009 54.3199 17.4695C54.6075 17.3381 54.833 17.1534 54.9964 16.9155C55.1597 16.674 55.2396 16.3952 55.2361 16.0792C55.2396 15.7702 55.1704 15.5021 55.0283 15.2749C54.8898 15.044 54.6927 14.8647 54.4371 14.7369C54.1849 14.609 53.8884 14.5451 53.5475 14.5451C53.2137 14.5451 52.9047 14.6055 52.6207 14.7262C52.3366 14.8469 52.1075 15.0192 51.9335 15.2429C51.7595 15.4631 51.6672 15.7259 51.6565 16.0312H49.7549C49.7691 15.4205 49.9449 14.8842 50.2822 14.4226C50.6231 13.9574 51.0777 13.5952 51.6459 13.3359C52.214 13.0732 52.8515 12.9418 53.5582 12.9418C54.2861 12.9418 54.9182 13.0785 55.4545 13.3519C55.9942 13.6218 56.4115 13.9858 56.7062 14.4439C57.001 14.902 57.1483 15.408 57.1483 15.962C57.1519 16.5763 56.9708 17.0913 56.605 17.5067C56.2428 17.9222 55.767 18.1939 55.1775 18.3217V18.407C55.9445 18.5135 56.5322 18.7976 56.9406 19.2592C57.3525 19.7173 57.5567 20.2873 57.5532 20.9691C57.5532 21.5799 57.3792 22.1268 57.0312 22.6097C56.6867 23.0891 56.2108 23.4656 55.6036 23.739C54.9999 24.0124 54.3074 24.1491 53.5262 24.1491ZM63.2088 13.0909H65.6271L68.8658 20.9957H68.9936L72.2322 13.0909H74.6506V24H72.7543V16.5053H72.6531L69.6381 23.968H68.2212L65.2063 16.4893H65.1051V24H63.2088V13.0909ZM82.7312 16.0898C82.6815 15.6246 82.4719 15.2624 82.1026 15.0032C81.7369 14.744 81.261 14.6143 80.6751 14.6143C80.2631 14.6143 79.9098 14.6765 79.6151 14.8008C79.3203 14.9251 79.0948 15.0937 78.9386 15.3068C78.7823 15.5199 78.7024 15.7631 78.6989 16.0366C78.6989 16.2638 78.7504 16.4609 78.8533 16.6278C78.9599 16.7947 79.1037 16.9368 79.2848 17.054C79.4659 17.1676 79.6665 17.2635 79.8867 17.3416C80.1069 17.4197 80.3288 17.4854 80.5526 17.5387L81.5753 17.7944C81.9872 17.8903 82.3832 18.0199 82.7631 18.1832C83.1467 18.3466 83.4893 18.5526 83.7912 18.8011C84.0966 19.0497 84.3381 19.3498 84.5156 19.7013C84.6932 20.0529 84.782 20.4648 84.782 20.9371C84.782 21.5763 84.6186 22.1392 84.2919 22.6257C83.9652 23.1087 83.4929 23.4869 82.875 23.7603C82.2607 24.0302 81.5167 24.1651 80.6431 24.1651C79.7944 24.1651 79.0575 24.0337 78.4325 23.771C77.8111 23.5082 77.3246 23.1246 76.973 22.6204C76.625 22.1161 76.4368 21.5018 76.4084 20.7773H78.3526C78.381 21.1573 78.4982 21.4734 78.7042 21.7255C78.9102 21.9776 79.1783 22.1658 79.5085 22.2901C79.8423 22.4144 80.2152 22.4766 80.6271 22.4766C81.0568 22.4766 81.4332 22.4126 81.7564 22.2848C82.0831 22.1534 82.3388 21.9723 82.5234 21.7415C82.7081 21.5071 82.8022 21.2337 82.8058 20.9212C82.8022 20.6371 82.7188 20.4027 82.5554 20.218C82.392 20.0298 82.163 19.8736 81.8683 19.7493C81.5771 19.6214 81.2362 19.5078 80.8455 19.4084L79.6044 19.0888C78.706 18.858 77.9957 18.5082 77.4737 18.0394C76.9553 17.5671 76.696 16.9403 76.696 16.1591C76.696 15.5163 76.87 14.9535 77.218 14.4705C77.5696 13.9876 78.0472 13.6129 78.6509 13.3466C79.2546 13.0767 79.9382 12.9418 80.7017 12.9418C81.4759 12.9418 82.1541 13.0767 82.7365 13.3466C83.3224 13.6129 83.7823 13.984 84.1161 14.4599C84.4499 14.9322 84.6222 15.4755 84.6328 16.0898H82.7312ZM90.1792 24V15.8182H92.1075V24H90.1792ZM91.1487 14.657C90.8433 14.657 90.5805 14.5558 90.3604 14.3533C90.1402 14.1474 90.0301 13.9006 90.0301 13.6129C90.0301 13.3217 90.1402 13.0749 90.3604 12.8725C90.5805 12.6665 90.8433 12.5636 91.1487 12.5636C91.4577 12.5636 91.7204 12.6665 91.9371 12.8725C92.1572 13.0749 92.2673 13.3217 92.2673 13.6129C92.2673 13.9006 92.1572 14.1474 91.9371 14.3533C91.7204 14.5558 91.4577 14.657 91.1487 14.657ZM94.0904 24V15.8182H95.9334V17.2085H96.0293C96.1998 16.7397 96.4821 16.3739 96.8762 16.1112C97.2704 15.8448 97.7409 15.7116 98.2878 15.7116C98.8418 15.7116 99.3088 15.8466 99.6887 16.1165C100.072 16.3828 100.342 16.7468 100.498 17.2085H100.584C100.765 16.7539 101.07 16.3917 101.5 16.1218C101.933 15.8484 102.446 15.7116 103.039 15.7116C103.792 15.7116 104.406 15.9496 104.882 16.4254C105.358 16.9013 105.596 17.5955 105.596 18.5082V24H103.662V18.8065C103.662 18.2987 103.528 17.9276 103.258 17.6932C102.988 17.4553 102.657 17.3363 102.267 17.3363C101.802 17.3363 101.438 17.4819 101.175 17.7731C100.916 18.0607 100.786 18.4354 100.786 18.897V24H98.8951V18.7266C98.8951 18.304 98.7672 17.9666 98.5115 17.7145C98.2594 17.4624 97.9292 17.3363 97.5208 17.3363C97.2438 17.3363 96.9917 17.4073 96.7644 17.5494C96.5371 17.6879 96.356 17.8849 96.2211 18.1406C96.0861 18.3928 96.0186 18.6875 96.0186 19.0249V24H94.0904ZM107.552 27.0682V15.8182H109.449V17.1712H109.56C109.66 16.9723 109.8 16.761 109.981 16.5373C110.162 16.31 110.407 16.1165 110.716 15.9567C111.025 15.7933 111.419 15.7116 111.899 15.7116C112.531 15.7116 113.101 15.8732 113.609 16.1964C114.12 16.516 114.525 16.9901 114.823 17.6186C115.125 18.2436 115.276 19.0107 115.276 19.9197C115.276 20.8182 115.129 21.5817 114.834 22.2102C114.539 22.8388 114.138 23.3182 113.63 23.6484C113.122 23.9787 112.547 24.1438 111.904 24.1438C111.435 24.1438 111.047 24.0657 110.738 23.9094C110.429 23.7532 110.18 23.565 109.992 23.3448C109.807 23.1211 109.663 22.9098 109.56 22.7109H109.481V27.0682H107.552ZM109.443 19.9091C109.443 20.4382 109.518 20.9016 109.667 21.2994C109.82 21.6971 110.038 22.0078 110.322 22.2315C110.61 22.4517 110.958 22.5618 111.366 22.5618C111.792 22.5618 112.149 22.4482 112.437 22.2209C112.725 21.9901 112.941 21.6758 113.087 21.2781C113.236 20.8768 113.31 20.4205 113.31 19.9091C113.31 19.4013 113.238 18.9503 113.092 18.5561C112.946 18.1619 112.73 17.853 112.442 17.6293C112.155 17.4055 111.796 17.2937 111.366 17.2937C110.954 17.2937 110.604 17.402 110.317 17.6186C110.029 17.8352 109.811 18.1388 109.662 18.5295C109.516 18.9201 109.443 19.38 109.443 19.9091ZM116.927 24V15.8182H118.797V17.1818H118.882C119.031 16.7095 119.287 16.3455 119.649 16.0898C120.015 15.8306 120.432 15.701 120.901 15.701C121.008 15.701 121.127 15.7063 121.258 15.717C121.393 15.7241 121.505 15.7365 121.593 15.7543V17.5281C121.512 17.4996 121.382 17.4748 121.205 17.4535C121.031 17.4286 120.862 17.4162 120.699 17.4162C120.347 17.4162 120.031 17.4925 119.75 17.6452C119.473 17.7944 119.255 18.0021 119.095 18.2685C118.935 18.5348 118.856 18.842 118.856 19.19V24H116.927ZM126.16 24.1598C125.339 24.1598 124.631 23.9893 124.034 23.6484C123.441 23.304 122.985 22.8175 122.665 22.1889C122.346 21.5568 122.186 20.8129 122.186 19.957C122.186 19.1154 122.346 18.3768 122.665 17.7411C122.989 17.1019 123.44 16.6048 124.018 16.2496C124.597 15.891 125.277 15.7116 126.059 15.7116C126.563 15.7116 127.039 15.7933 127.486 15.9567C127.937 16.1165 128.335 16.3651 128.679 16.7024C129.027 17.0398 129.301 17.4695 129.5 17.9915C129.699 18.5099 129.798 19.1278 129.798 19.8452V20.4364H123.092V19.1367H127.95C127.946 18.7674 127.866 18.4389 127.71 18.1513C127.554 17.8601 127.335 17.631 127.055 17.4641C126.778 17.2972 126.455 17.2138 126.085 17.2138C125.691 17.2138 125.345 17.3097 125.047 17.5014C124.748 17.6896 124.516 17.9382 124.349 18.2472C124.185 18.5526 124.102 18.8881 124.098 19.2539V20.3885C124.098 20.8643 124.185 21.2727 124.359 21.6136C124.533 21.951 124.777 22.2102 125.089 22.3913C125.402 22.5689 125.767 22.6577 126.186 22.6577C126.467 22.6577 126.721 22.6186 126.948 22.5405C127.175 22.4588 127.373 22.3398 127.539 22.1836C127.706 22.0273 127.832 21.8338 127.918 21.603L129.718 21.8054C129.604 22.2812 129.388 22.6967 129.068 23.0518C128.752 23.4034 128.347 23.6768 127.854 23.8722C127.36 24.0639 126.795 24.1598 126.16 24.1598ZM137.896 17.9808L136.138 18.1726C136.088 17.995 136.001 17.8281 135.877 17.6719C135.756 17.5156 135.593 17.3896 135.387 17.2937C135.181 17.1978 134.929 17.1499 134.631 17.1499C134.229 17.1499 133.892 17.2369 133.619 17.4109C133.349 17.5849 133.215 17.8104 133.219 18.0874C133.215 18.3253 133.302 18.5188 133.48 18.668C133.661 18.8171 133.959 18.9396 134.375 19.0355L135.771 19.3338C136.545 19.5007 137.12 19.7653 137.496 20.1275C137.876 20.4897 138.068 20.9638 138.072 21.5497C138.068 22.0646 137.917 22.5192 137.619 22.9134C137.324 23.304 136.914 23.6094 136.388 23.8295C135.863 24.0497 135.259 24.1598 134.577 24.1598C133.576 24.1598 132.77 23.9503 132.159 23.5312C131.548 23.1087 131.184 22.521 131.067 21.7681L132.947 21.587C133.033 21.9563 133.214 22.2351 133.491 22.4233C133.768 22.6115 134.128 22.7056 134.572 22.7056C135.03 22.7056 135.398 22.6115 135.675 22.4233C135.955 22.2351 136.095 22.0025 136.095 21.7255C136.095 21.4911 136.005 21.2976 135.824 21.1449C135.646 20.9922 135.369 20.875 134.993 20.7933L133.597 20.5004C132.812 20.337 132.232 20.0618 131.855 19.6747C131.479 19.2841 131.293 18.7905 131.296 18.1939C131.293 17.6896 131.429 17.2528 131.706 16.8835C131.987 16.5107 132.376 16.223 132.873 16.0206C133.373 15.8146 133.951 15.7116 134.604 15.7116C135.563 15.7116 136.317 15.9158 136.868 16.3242C137.422 16.7326 137.764 17.2848 137.896 17.9808ZM143.231 24.1598C142.432 24.1598 141.739 23.984 141.153 23.6325C140.567 23.2809 140.113 22.7891 139.79 22.157C139.47 21.5249 139.31 20.7862 139.31 19.9411C139.31 19.0959 139.47 18.3555 139.79 17.7198C140.113 17.0842 140.567 16.5906 141.153 16.239C141.739 15.8874 142.432 15.7116 143.231 15.7116C144.03 15.7116 144.722 15.8874 145.308 16.239C145.894 16.5906 146.347 17.0842 146.666 17.7198C146.989 18.3555 147.151 19.0959 147.151 19.9411C147.151 20.7862 146.989 21.5249 146.666 22.157C146.347 22.7891 145.894 23.2809 145.308 23.6325C144.722 23.984 144.03 24.1598 143.231 24.1598ZM143.241 22.6151C143.674 22.6151 144.037 22.4961 144.328 22.2582C144.619 22.0167 144.836 21.6935 144.978 21.2887C145.123 20.8839 145.196 20.4329 145.196 19.9357C145.196 19.435 145.123 18.9822 144.978 18.5774C144.836 18.169 144.619 17.8441 144.328 17.6026C144.037 17.3612 143.674 17.2404 143.241 17.2404C142.797 17.2404 142.428 17.3612 142.133 17.6026C141.842 17.8441 141.624 18.169 141.478 18.5774C141.336 18.9822 141.265 19.435 141.265 19.9357C141.265 20.4329 141.336 20.8839 141.478 21.2887C141.624 21.6935 141.842 22.0167 142.133 22.2582C142.428 22.4961 142.797 22.6151 143.241 22.6151ZM155.254 17.9808L153.496 18.1726C153.447 17.995 153.36 17.8281 153.235 17.6719C153.115 17.5156 152.951 17.3896 152.745 17.2937C152.539 17.1978 152.287 17.1499 151.989 17.1499C151.588 17.1499 151.25 17.2369 150.977 17.4109C150.707 17.5849 150.574 17.8104 150.577 18.0874C150.574 18.3253 150.661 18.5188 150.838 18.668C151.02 18.8171 151.318 18.9396 151.733 19.0355L153.129 19.3338C153.903 19.5007 154.478 19.7653 154.855 20.1275C155.235 20.4897 155.426 20.9638 155.43 21.5497C155.426 22.0646 155.276 22.5192 154.977 22.9134C154.683 23.304 154.272 23.6094 153.747 23.8295C153.221 24.0497 152.618 24.1598 151.936 24.1598C150.934 24.1598 150.128 23.9503 149.517 23.5312C148.907 23.1087 148.543 22.521 148.425 21.7681L150.306 21.587C150.391 21.9563 150.572 22.2351 150.849 22.4233C151.126 22.6115 151.487 22.7056 151.93 22.7056C152.388 22.7056 152.756 22.6115 153.033 22.4233C153.314 22.2351 153.454 22.0025 153.454 21.7255C153.454 21.4911 153.363 21.2976 153.182 21.1449C153.005 20.9922 152.728 20.875 152.351 20.7933L150.956 20.5004C150.171 20.337 149.59 20.0618 149.214 19.6747C148.837 19.2841 148.651 18.7905 148.654 18.1939C148.651 17.6896 148.788 17.2528 149.065 16.8835C149.345 16.5107 149.734 16.223 150.231 16.0206C150.732 15.8146 151.309 15.7116 151.962 15.7116C152.921 15.7116 153.676 15.9158 154.226 16.3242C154.78 16.7326 155.123 17.2848 155.254 17.9808ZM158.208 24.1172C157.885 24.1172 157.608 24.0036 157.377 23.7763C157.146 23.549 157.032 23.272 157.036 22.9453C157.032 22.6257 157.146 22.3523 157.377 22.125C157.608 21.8977 157.885 21.7841 158.208 21.7841C158.52 21.7841 158.792 21.8977 159.023 22.125C159.257 22.3523 159.376 22.6257 159.38 22.9453C159.376 23.1619 159.319 23.359 159.209 23.5366C159.103 23.7141 158.961 23.8562 158.783 23.9627C158.609 24.0657 158.417 24.1172 158.208 24.1172ZM168.536 24H164.84V13.0909H168.611C169.694 13.0909 170.624 13.3093 171.402 13.7461C172.183 14.1793 172.784 14.8026 173.203 15.6158C173.622 16.429 173.831 17.402 173.831 18.5348C173.831 19.6712 173.62 20.6477 173.197 21.4645C172.778 22.2812 172.173 22.908 171.381 23.3448C170.593 23.7816 169.644 24 168.536 24ZM166.816 22.2901H168.441C169.2 22.2901 169.834 22.1516 170.342 21.8746C170.85 21.5941 171.232 21.1768 171.487 20.6229C171.743 20.0653 171.871 19.3693 171.871 18.5348C171.871 17.7003 171.743 17.0078 171.487 16.4574C171.232 15.9034 170.854 15.4897 170.353 15.2163C169.856 14.9393 169.238 14.8008 168.499 14.8008H166.816V22.2901ZM175.624 24V15.8182H177.552V24H175.624ZM176.593 14.657C176.288 14.657 176.025 14.5558 175.805 14.3533C175.585 14.1474 175.474 13.9006 175.474 13.6129C175.474 13.3217 175.585 13.0749 175.805 12.8725C176.025 12.6665 176.288 12.5636 176.593 12.5636C176.902 12.5636 177.165 12.6665 177.381 12.8725C177.602 13.0749 177.712 13.3217 177.712 13.6129C177.712 13.9006 177.602 14.1474 177.381 14.3533C177.165 14.5558 176.902 14.657 176.593 14.657ZM186.001 17.9808L184.244 18.1726C184.194 17.995 184.107 17.8281 183.983 17.6719C183.862 17.5156 183.698 17.3896 183.492 17.2937C183.286 17.1978 183.034 17.1499 182.736 17.1499C182.335 17.1499 181.997 17.2369 181.724 17.4109C181.454 17.5849 181.321 17.8104 181.324 18.0874C181.321 18.3253 181.408 18.5188 181.585 18.668C181.767 18.8171 182.065 18.9396 182.48 19.0355L183.876 19.3338C184.65 19.5007 185.225 19.7653 185.602 20.1275C185.982 20.4897 186.174 20.9638 186.177 21.5497C186.174 22.0646 186.023 22.5192 185.724 22.9134C185.43 23.304 185.019 23.6094 184.494 23.8295C183.968 24.0497 183.365 24.1598 182.683 24.1598C181.681 24.1598 180.875 23.9503 180.264 23.5312C179.654 23.1087 179.29 22.521 179.172 21.7681L181.053 21.587C181.138 21.9563 181.319 22.2351 181.596 22.4233C181.873 22.6115 182.234 22.7056 182.677 22.7056C183.136 22.7056 183.503 22.6115 183.78 22.4233C184.061 22.2351 184.201 22.0025 184.201 21.7255C184.201 21.4911 184.11 21.2976 183.929 21.1449C183.752 20.9922 183.475 20.875 183.098 20.7933L181.703 20.5004C180.918 20.337 180.337 20.0618 179.961 19.6747C179.584 19.2841 179.398 18.7905 179.402 18.1939C179.398 17.6896 179.535 17.2528 179.812 16.8835C180.092 16.5107 180.481 16.223 180.978 16.0206C181.479 15.8146 182.056 15.7116 182.709 15.7116C183.668 15.7116 184.423 15.9158 184.973 16.3242C185.527 16.7326 185.87 17.2848 186.001 17.9808ZM191.389 24.1598C190.569 24.1598 189.861 23.9893 189.264 23.6484C188.671 23.304 188.215 22.8175 187.895 22.1889C187.575 21.5568 187.416 20.8129 187.416 19.957C187.416 19.1154 187.575 18.3768 187.895 17.7411C188.218 17.1019 188.669 16.6048 189.248 16.2496C189.827 15.891 190.507 15.7116 191.288 15.7116C191.792 15.7116 192.268 15.7933 192.716 15.9567C193.167 16.1165 193.564 16.3651 193.909 16.7024C194.257 17.0398 194.53 17.4695 194.729 17.9915C194.928 18.5099 195.027 19.1278 195.027 19.8452V20.4364H188.321V19.1367H193.179C193.176 18.7674 193.096 18.4389 192.939 18.1513C192.783 17.8601 192.565 17.631 192.284 17.4641C192.007 17.2972 191.684 17.2138 191.315 17.2138C190.921 17.2138 190.574 17.3097 190.276 17.5014C189.978 17.6896 189.745 17.9382 189.578 18.2472C189.415 18.5526 189.331 18.8881 189.328 19.2539V20.3885C189.328 20.8643 189.415 21.2727 189.589 21.6136C189.763 21.951 190.006 22.2102 190.319 22.3913C190.631 22.5689 190.997 22.6577 191.416 22.6577C191.696 22.6577 191.95 22.6186 192.178 22.5405C192.405 22.4588 192.602 22.3398 192.769 22.1836C192.936 22.0273 193.062 21.8338 193.147 21.603L194.948 21.8054C194.834 22.2812 194.617 22.6967 194.298 23.0518C193.982 23.4034 193.577 23.6768 193.083 23.8722C192.59 24.0639 192.025 24.1598 191.389 24.1598ZM198.587 19.206V24H196.659V15.8182H198.502V17.2085H198.598C198.786 16.7504 199.086 16.3864 199.498 16.1165C199.913 15.8466 200.426 15.7116 201.037 15.7116C201.602 15.7116 202.094 15.8324 202.513 16.0739C202.935 16.3153 203.262 16.6651 203.493 17.1232C203.727 17.5813 203.843 18.1371 203.839 18.7905V24H201.911V19.0888C201.911 18.5419 201.769 18.114 201.485 17.805C201.204 17.4961 200.815 17.3416 200.318 17.3416C199.981 17.3416 199.681 17.4162 199.418 17.5653C199.159 17.7109 198.955 17.9222 198.805 18.1992C198.66 18.4762 198.587 18.8118 198.587 19.206ZM198.678 14.8221L197.511 14.7955C197.511 14.1634 197.674 13.668 198.001 13.3093C198.328 12.9506 198.731 12.7713 199.21 12.7713C199.441 12.7713 199.642 12.8104 199.812 12.8885C199.983 12.9631 200.139 13.0501 200.281 13.1495C200.426 13.2489 200.569 13.3377 200.707 13.4158C200.846 13.4904 200.998 13.5277 201.165 13.5277C201.368 13.5277 201.527 13.4513 201.645 13.2987C201.765 13.146 201.827 12.9506 201.831 12.7127L202.976 12.7607C202.973 13.3963 202.808 13.8899 202.481 14.2415C202.154 14.5895 201.753 14.7653 201.277 14.7688C201.021 14.7724 200.806 14.7351 200.632 14.657C200.458 14.5788 200.306 14.4901 200.174 14.3906C200.047 14.2912 199.917 14.2042 199.786 14.1296C199.654 14.0515 199.5 14.0124 199.322 14.0124C199.134 14.0124 198.979 14.087 198.859 14.2362C198.738 14.3853 198.678 14.5806 198.678 14.8221ZM208.154 24.1651C207.635 24.1651 207.168 24.0728 206.753 23.8881C206.341 23.6999 206.014 23.4229 205.773 23.0572C205.535 22.6914 205.416 22.2404 205.416 21.7042C205.416 21.2425 205.501 20.8608 205.672 20.5589C205.842 20.2571 206.075 20.0156 206.369 19.8345C206.664 19.6534 206.996 19.5167 207.365 19.4244C207.738 19.3285 208.124 19.2592 208.521 19.2166C209.001 19.1669 209.39 19.1225 209.688 19.0835C209.986 19.0408 210.203 18.9769 210.338 18.8917C210.476 18.8029 210.545 18.6662 210.545 18.4815V18.4496C210.545 18.0483 210.426 17.7376 210.189 17.5174C209.951 17.2972 209.608 17.1871 209.161 17.1871C208.688 17.1871 208.314 17.2901 208.037 17.4961C207.763 17.7021 207.578 17.9453 207.483 18.2259L205.682 17.9702C205.824 17.473 206.059 17.0575 206.385 16.7237C206.712 16.3864 207.112 16.1342 207.584 15.9673C208.056 15.7969 208.578 15.7116 209.15 15.7116C209.544 15.7116 209.936 15.7578 210.327 15.8501C210.718 15.9425 211.075 16.0952 211.398 16.3082C211.721 16.5178 211.98 16.8036 212.175 17.1658C212.374 17.5281 212.474 17.9808 212.474 18.5241V24H210.62V22.8761H210.556C210.439 23.1033 210.274 23.3164 210.061 23.5153C209.851 23.7106 209.587 23.8686 209.267 23.9893C208.951 24.1065 208.58 24.1651 208.154 24.1651ZM208.654 22.7482C209.042 22.7482 209.377 22.6719 209.661 22.5192C209.945 22.3629 210.164 22.157 210.316 21.9013C210.473 21.6456 210.551 21.3668 210.551 21.065V20.1009C210.49 20.1506 210.387 20.1967 210.242 20.2393C210.1 20.282 209.94 20.3192 209.762 20.3512C209.585 20.3832 209.409 20.4116 209.235 20.4364C209.061 20.4613 208.91 20.4826 208.782 20.5004C208.495 20.5394 208.237 20.6033 208.01 20.6921C207.783 20.7809 207.603 20.9052 207.472 21.065C207.341 21.2212 207.275 21.4237 207.275 21.6722C207.275 22.0273 207.404 22.2955 207.664 22.4766C207.923 22.6577 208.253 22.7482 208.654 22.7482ZM217.449 24.1438C216.806 24.1438 216.231 23.9787 215.723 23.6484C215.215 23.3182 214.814 22.8388 214.519 22.2102C214.224 21.5817 214.077 20.8182 214.077 19.9197C214.077 19.0107 214.226 18.2436 214.525 17.6186C214.826 16.9901 215.233 16.516 215.744 16.1964C216.256 15.8732 216.826 15.7116 217.454 15.7116C217.934 15.7116 218.328 15.7933 218.637 15.9567C218.946 16.1165 219.191 16.31 219.372 16.5373C219.553 16.761 219.693 16.9723 219.793 17.1712H219.873V13.0909H221.806V24H219.91V22.7109H219.793C219.693 22.9098 219.549 23.1211 219.361 23.3448C219.173 23.565 218.924 23.7532 218.615 23.9094C218.306 24.0657 217.918 24.1438 217.449 24.1438ZM217.987 22.5618C218.395 22.5618 218.743 22.4517 219.031 22.2315C219.319 22.0078 219.537 21.6971 219.686 21.2994C219.835 20.9016 219.91 20.4382 219.91 19.9091C219.91 19.38 219.835 18.9201 219.686 18.5295C219.54 18.1388 219.324 17.8352 219.036 17.6186C218.752 17.402 218.402 17.2937 217.987 17.2937C217.557 17.2937 217.199 17.4055 216.911 17.6293C216.623 17.853 216.407 18.1619 216.261 18.5561C216.115 18.9503 216.043 19.4013 216.043 19.9091C216.043 20.4205 216.115 20.8768 216.261 21.2781C216.41 21.6758 216.629 21.9901 216.916 22.2209C217.207 22.4482 217.564 22.5618 217.987 22.5618ZM227.43 24.1598C226.631 24.1598 225.938 23.984 225.352 23.6325C224.766 23.2809 224.312 22.7891 223.989 22.157C223.669 21.5249 223.509 20.7862 223.509 19.9411C223.509 19.0959 223.669 18.3555 223.989 17.7198C224.312 17.0842 224.766 16.5906 225.352 16.239C225.938 15.8874 226.631 15.7116 227.43 15.7116C228.229 15.7116 228.921 15.8874 229.507 16.239C230.093 16.5906 230.546 17.0842 230.866 17.7198C231.189 18.3555 231.35 19.0959 231.35 19.9411C231.35 20.7862 231.189 21.5249 230.866 22.157C230.546 22.7891 230.093 23.2809 229.507 23.6325C228.921 23.984 228.229 24.1598 227.43 24.1598ZM227.44 22.6151C227.874 22.6151 228.236 22.4961 228.527 22.2582C228.818 22.0167 229.035 21.6935 229.177 21.2887C229.323 20.8839 229.395 20.4329 229.395 19.9357C229.395 19.435 229.323 18.9822 229.177 18.5774C229.035 18.169 228.818 17.8441 228.527 17.6026C228.236 17.3612 227.874 17.2404 227.44 17.2404C226.997 17.2404 226.627 17.3612 226.332 17.6026C226.041 17.8441 225.823 18.169 225.677 18.5774C225.535 18.9822 225.464 19.435 225.464 19.9357C225.464 20.4329 225.535 20.8839 225.677 21.2887C225.823 21.6935 226.041 22.0167 226.332 22.2582C226.627 22.4961 226.997 22.6151 227.44 22.6151ZM236.708 27.0682V15.8182H238.604V17.1712H238.716C238.815 16.9723 238.955 16.761 239.137 16.5373C239.318 16.31 239.563 16.1165 239.872 15.9567C240.181 15.7933 240.575 15.7116 241.054 15.7116C241.686 15.7116 242.256 15.8732 242.764 16.1964C243.275 16.516 243.68 16.9901 243.979 17.6186C244.28 18.2436 244.431 19.0107 244.431 19.9197C244.431 20.8182 244.284 21.5817 243.989 22.2102C243.694 22.8388 243.293 23.3182 242.785 23.6484C242.278 23.9787 241.702 24.1438 241.059 24.1438C240.591 24.1438 240.202 24.0657 239.893 23.9094C239.584 23.7532 239.335 23.565 239.147 23.3448C238.963 23.1211 238.819 22.9098 238.716 22.7109H238.636V27.0682H236.708ZM238.599 19.9091C238.599 20.4382 238.673 20.9016 238.822 21.2994C238.975 21.6971 239.193 22.0078 239.477 22.2315C239.765 22.4517 240.113 22.5618 240.521 22.5618C240.948 22.5618 241.305 22.4482 241.592 22.2209C241.88 21.9901 242.096 21.6758 242.242 21.2781C242.391 20.8768 242.466 20.4205 242.466 19.9091C242.466 19.4013 242.393 18.9503 242.247 18.5561C242.102 18.1619 241.885 17.853 241.597 17.6293C241.31 17.4055 240.951 17.2937 240.521 17.2937C240.11 17.2937 239.76 17.402 239.472 17.6186C239.184 17.8352 238.966 18.1388 238.817 18.5295C238.671 18.9201 238.599 19.38 238.599 19.9091ZM249.651 24.1598C248.852 24.1598 248.16 23.984 247.574 23.6325C246.988 23.2809 246.534 22.7891 246.21 22.157C245.891 21.5249 245.731 20.7862 245.731 19.9411C245.731 19.0959 245.891 18.3555 246.21 17.7198C246.534 17.0842 246.988 16.5906 247.574 16.239C248.16 15.8874 248.852 15.7116 249.651 15.7116C250.45 15.7116 251.143 15.8874 251.729 16.239C252.315 16.5906 252.768 17.0842 253.087 17.7198C253.41 18.3555 253.572 19.0959 253.572 19.9411C253.572 20.7862 253.41 21.5249 253.087 22.157C252.768 22.7891 252.315 23.2809 251.729 23.6325C251.143 23.984 250.45 24.1598 249.651 24.1598ZM249.662 22.6151C250.095 22.6151 250.458 22.4961 250.749 22.2582C251.04 22.0167 251.257 21.6935 251.399 21.2887C251.544 20.8839 251.617 20.4329 251.617 19.9357C251.617 19.435 251.544 18.9822 251.399 18.5774C251.257 18.169 251.04 17.8441 250.749 17.6026C250.458 17.3612 250.095 17.2404 249.662 17.2404C249.218 17.2404 248.849 17.3612 248.554 17.6026C248.263 17.8441 248.045 18.169 247.899 18.5774C247.757 18.9822 247.686 19.435 247.686 19.9357C247.686 20.4329 247.757 20.8839 247.899 21.2887C248.045 21.6935 248.263 22.0167 248.554 22.2582C248.849 22.4961 249.218 22.6151 249.662 22.6151ZM255.209 24V15.8182H257.078V17.1818H257.163C257.313 16.7095 257.568 16.3455 257.93 16.0898C258.296 15.8306 258.714 15.701 259.182 15.701C259.289 15.701 259.408 15.7063 259.539 15.717C259.674 15.7241 259.786 15.7365 259.875 15.7543V17.5281C259.793 17.4996 259.663 17.4748 259.486 17.4535C259.312 17.4286 259.143 17.4162 258.98 17.4162C258.628 17.4162 258.312 17.4925 258.032 17.6452C257.755 17.7944 257.536 18.0021 257.377 18.2685C257.217 18.5348 257.137 18.842 257.137 19.19V24H255.209ZM274.299 16.7717H272.307C272.25 16.445 272.146 16.1555 271.993 15.9034C271.84 15.6477 271.65 15.4311 271.423 15.2536C271.196 15.076 270.937 14.9428 270.645 14.854C270.358 14.7617 270.047 14.7156 269.713 14.7156C269.12 14.7156 268.595 14.8647 268.136 15.163C267.678 15.4577 267.32 15.891 267.06 16.4627C266.801 17.0309 266.672 17.7251 266.672 18.5455C266.672 19.38 266.801 20.0831 267.06 20.6548C267.323 21.223 267.682 21.6527 268.136 21.9439C268.595 22.2315 269.118 22.3754 269.708 22.3754C270.035 22.3754 270.34 22.3327 270.624 22.2475C270.912 22.1587 271.169 22.0291 271.396 21.8587C271.627 21.6882 271.821 21.4787 271.977 21.2301C272.137 20.9815 272.247 20.6974 272.307 20.3778L274.299 20.3885C274.225 20.907 274.063 21.3935 273.815 21.848C273.57 22.3026 273.248 22.7038 272.851 23.0518C272.453 23.3963 271.988 23.6662 271.455 23.8615C270.922 24.0533 270.331 24.1491 269.681 24.1491C268.722 24.1491 267.867 23.9272 267.114 23.4833C266.361 23.0394 265.768 22.3984 265.335 21.5604C264.901 20.7223 264.685 19.7173 264.685 18.5455C264.685 17.37 264.903 16.3651 265.34 15.5305C265.777 14.6925 266.372 14.0515 267.124 13.6076C267.877 13.1637 268.729 12.9418 269.681 12.9418C270.288 12.9418 270.853 13.027 271.375 13.1974C271.897 13.3679 272.362 13.6183 272.771 13.9485C273.179 14.2752 273.515 14.6765 273.777 15.1523C274.044 15.6246 274.218 16.1644 274.299 16.7717ZM278.378 24.1651C277.86 24.1651 277.393 24.0728 276.977 23.8881C276.566 23.6999 276.239 23.4229 275.997 23.0572C275.759 22.6914 275.64 22.2404 275.64 21.7042C275.64 21.2425 275.726 20.8608 275.896 20.5589C276.067 20.2571 276.299 20.0156 276.594 19.8345C276.889 19.6534 277.221 19.5167 277.59 19.4244C277.963 19.3285 278.348 19.2592 278.746 19.2166C279.225 19.1669 279.614 19.1225 279.912 19.0835C280.211 19.0408 280.427 18.9769 280.562 18.8917C280.701 18.8029 280.77 18.6662 280.77 18.4815V18.4496C280.77 18.0483 280.651 17.7376 280.413 17.5174C280.175 17.2972 279.833 17.1871 279.385 17.1871C278.913 17.1871 278.538 17.2901 278.261 17.4961C277.988 17.7021 277.803 17.9453 277.707 18.2259L275.907 17.9702C276.049 17.473 276.283 17.0575 276.61 16.7237C276.937 16.3864 277.336 16.1342 277.808 15.9673C278.281 15.7969 278.803 15.7116 279.374 15.7116C279.769 15.7116 280.161 15.7578 280.552 15.8501C280.942 15.9425 281.299 16.0952 281.622 16.3082C281.945 16.5178 282.205 16.8036 282.4 17.1658C282.599 17.5281 282.698 17.9808 282.698 18.5241V24H280.845V22.8761H280.781C280.664 23.1033 280.498 23.3164 280.285 23.5153C280.076 23.7106 279.811 23.8686 279.492 23.9893C279.176 24.1065 278.805 24.1651 278.378 24.1651ZM278.879 22.7482C279.266 22.7482 279.602 22.6719 279.886 22.5192C280.17 22.3629 280.388 22.157 280.541 21.9013C280.697 21.6456 280.775 21.3668 280.775 21.065V20.1009C280.715 20.1506 280.612 20.1967 280.466 20.2393C280.324 20.282 280.165 20.3192 279.987 20.3512C279.809 20.3832 279.634 20.4116 279.46 20.4364C279.286 20.4613 279.135 20.4826 279.007 20.5004C278.719 20.5394 278.462 20.6033 278.235 20.6921C278.007 20.7809 277.828 20.9052 277.697 21.065C277.565 21.2212 277.499 21.4237 277.499 21.6722C277.499 22.0273 277.629 22.2955 277.888 22.4766C278.148 22.6577 278.478 22.7482 278.879 22.7482ZM291.104 17.9808L289.346 18.1726C289.296 17.995 289.209 17.8281 289.085 17.6719C288.964 17.5156 288.801 17.3896 288.595 17.2937C288.389 17.1978 288.137 17.1499 287.839 17.1499C287.437 17.1499 287.1 17.2369 286.827 17.4109C286.557 17.5849 286.423 17.8104 286.427 18.0874C286.423 18.3253 286.51 18.5188 286.688 18.668C286.869 18.8171 287.167 18.9396 287.583 19.0355L288.979 19.3338C289.753 19.5007 290.328 19.7653 290.704 20.1275C291.084 20.4897 291.276 20.9638 291.28 21.5497C291.276 22.0646 291.125 22.5192 290.827 22.9134C290.532 23.304 290.122 23.6094 289.596 23.8295C289.071 24.0497 288.467 24.1598 287.785 24.1598C286.784 24.1598 285.978 23.9503 285.367 23.5312C284.756 23.1087 284.392 22.521 284.275 21.7681L286.155 21.587C286.241 21.9563 286.422 22.2351 286.699 22.4233C286.976 22.6115 287.336 22.7056 287.78 22.7056C288.238 22.7056 288.606 22.6115 288.883 22.4233C289.163 22.2351 289.303 22.0025 289.303 21.7255C289.303 21.4911 289.213 21.2976 289.032 21.1449C288.854 20.9922 288.577 20.875 288.201 20.7933L286.805 20.5004C286.02 20.337 285.44 20.0618 285.063 19.6747C284.687 19.2841 284.501 18.7905 284.504 18.1939C284.501 17.6896 284.637 17.2528 284.914 16.8835C285.195 16.5107 285.584 16.223 286.081 16.0206C286.581 15.8146 287.159 15.7116 287.812 15.7116C288.771 15.7116 289.525 15.9158 290.076 16.3242C290.63 16.7326 290.972 17.2848 291.104 17.9808ZM296.439 24.1598C295.622 24.1598 294.92 23.9805 294.335 23.6218C293.752 23.2631 293.303 22.7678 292.987 22.1357C292.674 21.5 292.518 20.7685 292.518 19.9411C292.518 19.1101 292.678 18.3768 292.998 17.7411C293.317 17.1019 293.768 16.6048 294.35 16.2496C294.936 15.891 295.629 15.7116 296.428 15.7116C297.092 15.7116 297.68 15.8342 298.191 16.0792C298.706 16.3207 299.116 16.6634 299.422 17.1072C299.727 17.5476 299.901 18.0625 299.944 18.652H298.1C298.026 18.2578 297.848 17.9293 297.568 17.6665C297.291 17.4002 296.92 17.267 296.455 17.267C296.06 17.267 295.714 17.3736 295.416 17.5866C295.118 17.7962 294.885 18.098 294.718 18.4922C294.555 18.8864 294.473 19.3587 294.473 19.9091C294.473 20.4666 294.555 20.946 294.718 21.3473C294.881 21.745 295.11 22.0522 295.405 22.2688C295.703 22.4819 296.053 22.5884 296.455 22.5884C296.739 22.5884 296.993 22.5352 297.216 22.4286C297.444 22.3185 297.634 22.1605 297.786 21.9545C297.939 21.7486 298.044 21.4982 298.1 21.2035H299.944C299.897 21.7823 299.727 22.2955 299.432 22.7429C299.137 23.1868 298.736 23.5348 298.228 23.7869C297.721 24.0355 297.124 24.1598 296.439 24.1598ZM303.881 24.1651C303.363 24.1651 302.896 24.0728 302.48 23.8881C302.068 23.6999 301.742 23.4229 301.5 23.0572C301.262 22.6914 301.143 22.2404 301.143 21.7042C301.143 21.2425 301.229 20.8608 301.399 20.5589C301.57 20.2571 301.802 20.0156 302.097 19.8345C302.392 19.6534 302.724 19.5167 303.093 19.4244C303.466 19.3285 303.851 19.2592 304.249 19.2166C304.728 19.1669 305.117 19.1225 305.415 19.0835C305.714 19.0408 305.93 18.9769 306.065 18.8917C306.204 18.8029 306.273 18.6662 306.273 18.4815V18.4496C306.273 18.0483 306.154 17.7376 305.916 17.5174C305.678 17.2972 305.335 17.1871 304.888 17.1871C304.416 17.1871 304.041 17.2901 303.764 17.4961C303.491 17.7021 303.306 17.9453 303.21 18.2259L301.41 17.9702C301.552 17.473 301.786 17.0575 302.113 16.7237C302.44 16.3864 302.839 16.1342 303.311 15.9673C303.784 15.7969 304.306 15.7116 304.877 15.7116C305.272 15.7116 305.664 15.7578 306.055 15.8501C306.445 15.9425 306.802 16.0952 307.125 16.3082C307.448 16.5178 307.708 16.8036 307.903 17.1658C308.102 17.5281 308.201 17.9808 308.201 18.5241V24H306.348V22.8761H306.284C306.166 23.1033 306.001 23.3164 305.788 23.5153C305.579 23.7106 305.314 23.8686 304.995 23.9893C304.679 24.1065 304.307 24.1651 303.881 24.1651ZM304.382 22.7482C304.769 22.7482 305.105 22.6719 305.389 22.5192C305.673 22.3629 305.891 22.157 306.044 21.9013C306.2 21.6456 306.278 21.3668 306.278 21.065V20.1009C306.218 20.1506 306.115 20.1967 305.969 20.2393C305.827 20.282 305.668 20.3192 305.49 20.3512C305.312 20.3832 305.137 20.4116 304.963 20.4364C304.789 20.4613 304.638 20.4826 304.51 20.5004C304.222 20.5394 303.965 20.6033 303.737 20.6921C303.51 20.7809 303.331 20.9052 303.199 21.065C303.068 21.2212 303.002 21.4237 303.002 21.6722C303.002 22.0273 303.132 22.2955 303.391 22.4766C303.65 22.6577 303.981 22.7482 304.382 22.7482ZM310.14 24V15.8182H312.01V17.1818H312.095C312.244 16.7095 312.5 16.3455 312.862 16.0898C313.228 15.8306 313.645 15.701 314.114 15.701C314.22 15.701 314.339 15.7063 314.471 15.717C314.606 15.7241 314.718 15.7365 314.806 15.7543V17.5281C314.725 17.4996 314.595 17.4748 314.418 17.4535C314.244 17.4286 314.075 17.4162 313.911 17.4162C313.56 17.4162 313.244 17.4925 312.963 17.6452C312.686 17.7944 312.468 18.0021 312.308 18.2685C312.148 18.5348 312.068 18.842 312.068 19.19V24H310.14ZM319.319 24.1598C318.52 24.1598 317.828 23.984 317.242 23.6325C316.656 23.2809 316.202 22.7891 315.878 22.157C315.559 21.5249 315.399 20.7862 315.399 19.9411C315.399 19.0959 315.559 18.3555 315.878 17.7198C316.202 17.0842 316.656 16.5906 317.242 16.239C317.828 15.8874 318.52 15.7116 319.319 15.7116C320.118 15.7116 320.811 15.8874 321.397 16.239C321.983 16.5906 322.436 17.0842 322.755 17.7198C323.078 18.3555 323.24 19.0959 323.24 19.9411C323.24 20.7862 323.078 21.5249 322.755 22.157C322.436 22.7891 321.983 23.2809 321.397 23.6325C320.811 23.984 320.118 24.1598 319.319 24.1598ZM319.33 22.6151C319.763 22.6151 320.126 22.4961 320.417 22.2582C320.708 22.0167 320.925 21.6935 321.067 21.2887C321.212 20.8839 321.285 20.4329 321.285 19.9357C321.285 19.435 321.212 18.9822 321.067 18.5774C320.925 18.169 320.708 17.8441 320.417 17.6026C320.126 17.3612 319.763 17.2404 319.33 17.2404C318.886 17.2404 318.517 17.3612 318.222 17.6026C317.931 17.8441 317.713 18.169 317.567 18.5774C317.425 18.9822 317.354 19.435 317.354 19.9357C317.354 20.4329 317.425 20.8839 317.567 21.2887C317.713 21.6935 317.931 22.0167 318.222 22.2582C318.517 22.4961 318.886 22.6151 319.33 22.6151ZM326.805 19.206V24H324.877V15.8182H326.72V17.2085H326.815C327.004 16.7504 327.304 16.3864 327.716 16.1165C328.131 15.8466 328.644 15.7116 329.255 15.7116C329.82 15.7116 330.312 15.8324 330.731 16.0739C331.153 16.3153 331.48 16.6651 331.711 17.1232C331.945 17.5813 332.06 18.1371 332.057 18.7905V24H330.129V19.0888C330.129 18.5419 329.987 18.114 329.703 17.805C329.422 17.4961 329.033 17.3416 328.536 17.3416C328.199 17.3416 327.899 17.4162 327.636 17.5653C327.377 17.7109 327.172 17.9222 327.023 18.1992C326.878 18.4762 326.805 18.8118 326.805 19.206ZM343.752 16.0898C343.702 15.6246 343.492 15.2624 343.123 15.0032C342.757 14.744 342.282 14.6143 341.696 14.6143C341.284 14.6143 340.93 14.6765 340.636 14.8008C340.341 14.9251 340.115 15.0937 339.959 15.3068C339.803 15.5199 339.723 15.7631 339.719 16.0366C339.719 16.2638 339.771 16.4609 339.874 16.6278C339.98 16.7947 340.124 16.9368 340.305 17.054C340.486 17.1676 340.687 17.2635 340.907 17.3416C341.127 17.4197 341.349 17.4854 341.573 17.5387L342.596 17.7944C343.008 17.8903 343.404 18.0199 343.784 18.1832C344.167 18.3466 344.51 18.5526 344.812 18.8011C345.117 19.0497 345.359 19.3498 345.536 19.7013C345.714 20.0529 345.802 20.4648 345.802 20.9371C345.802 21.5763 345.639 22.1392 345.312 22.6257C344.986 23.1087 344.513 23.4869 343.896 23.7603C343.281 24.0302 342.537 24.1651 341.664 24.1651C340.815 24.1651 340.078 24.0337 339.453 23.771C338.832 23.5082 338.345 23.1246 337.994 22.6204C337.646 22.1161 337.457 21.5018 337.429 20.7773H339.373C339.402 21.1573 339.519 21.4734 339.725 21.7255C339.931 21.9776 340.199 22.1658 340.529 22.2901C340.863 22.4144 341.236 22.4766 341.648 22.4766C342.077 22.4766 342.454 22.4126 342.777 22.2848C343.104 22.1534 343.359 21.9723 343.544 21.7415C343.729 21.5071 343.823 21.2337 343.826 20.9212C343.823 20.6371 343.739 20.4027 343.576 20.218C343.413 20.0298 343.184 19.8736 342.889 19.7493C342.598 19.6214 342.257 19.5078 341.866 19.4084L340.625 19.0888C339.726 18.858 339.016 18.5082 338.494 18.0394C337.976 17.5671 337.717 16.9403 337.717 16.1591C337.717 15.5163 337.891 14.9535 338.239 14.4705C338.59 13.9876 339.068 13.6129 339.671 13.3466C340.275 13.0767 340.959 12.9418 341.722 12.9418C342.496 12.9418 343.175 13.0767 343.757 13.3466C344.343 13.6129 344.803 13.984 345.137 14.4599C345.47 14.9322 345.643 15.4755 345.653 16.0898H343.752ZM351.565 15.8182V17.3097H346.861V15.8182H351.565ZM348.022 13.858H349.951V21.5391C349.951 21.7983 349.99 21.9972 350.068 22.1357C350.15 22.2706 350.256 22.3629 350.387 22.4126C350.519 22.4624 350.664 22.4872 350.824 22.4872C350.945 22.4872 351.055 22.4783 351.154 22.4606C351.257 22.4428 351.336 22.4268 351.389 22.4126L351.714 23.9201C351.611 23.9556 351.463 23.9947 351.272 24.0373C351.083 24.0799 350.853 24.1048 350.579 24.1119C350.096 24.1261 349.661 24.0533 349.274 23.8935C348.887 23.7301 348.58 23.478 348.353 23.1371C348.129 22.7962 348.019 22.37 348.022 21.8587V13.858ZM358.392 20.5589V15.8182H360.32V24H358.451V22.5458H358.366C358.181 23.0039 357.877 23.3786 357.455 23.6697C357.036 23.9609 356.519 24.1065 355.905 24.1065C355.368 24.1065 354.894 23.9876 354.482 23.7496C354.074 23.5082 353.754 23.1584 353.524 22.7003C353.293 22.2386 353.177 21.6811 353.177 21.0277V15.8182H355.106V20.7294C355.106 21.2479 355.248 21.6598 355.532 21.9652C355.816 22.2706 356.189 22.4233 356.65 22.4233C356.934 22.4233 357.21 22.354 357.476 22.2156C357.742 22.0771 357.961 21.8711 358.131 21.5977C358.305 21.3207 358.392 20.9744 358.392 20.5589ZM365.339 24.1438C364.697 24.1438 364.121 23.9787 363.614 23.6484C363.106 23.3182 362.705 22.8388 362.41 22.2102C362.115 21.5817 361.968 20.8182 361.968 19.9197C361.968 19.0107 362.117 18.2436 362.415 17.6186C362.717 16.9901 363.124 16.516 363.635 16.1964C364.146 15.8732 364.716 15.7116 365.345 15.7116C365.824 15.7116 366.218 15.7933 366.527 15.9567C366.836 16.1165 367.081 16.31 367.262 16.5373C367.444 16.761 367.584 16.9723 367.683 17.1712H367.763V13.0909H369.697V24H367.8V22.7109H367.683C367.584 22.9098 367.44 23.1211 367.252 23.3448C367.064 23.565 366.815 23.7532 366.506 23.9094C366.197 24.0657 365.808 24.1438 365.339 24.1438ZM365.877 22.5618C366.286 22.5618 366.634 22.4517 366.922 22.2315C367.209 22.0078 367.428 21.6971 367.577 21.2994C367.726 20.9016 367.8 20.4382 367.8 19.9091C367.8 19.38 367.726 18.9201 367.577 18.5295C367.431 18.1388 367.214 17.8352 366.927 17.6186C366.643 17.402 366.293 17.2937 365.877 17.2937C365.448 17.2937 365.089 17.4055 364.801 17.6293C364.514 17.853 364.297 18.1619 364.152 18.5561C364.006 18.9503 363.933 19.4013 363.933 19.9091C363.933 20.4205 364.006 20.8768 364.152 21.2781C364.301 21.6758 364.519 21.9901 364.807 22.2209C365.098 22.4482 365.455 22.5618 365.877 22.5618ZM371.752 24V15.8182H373.68V24H371.752ZM372.721 14.657C372.416 14.657 372.153 14.5558 371.933 14.3533C371.712 14.1474 371.602 13.9006 371.602 13.6129C371.602 13.3217 371.712 13.0749 371.933 12.8725C372.153 12.6665 372.416 12.5636 372.721 12.5636C373.03 12.5636 373.293 12.6665 373.509 12.8725C373.729 13.0749 373.84 13.3217 373.84 13.6129C373.84 13.9006 373.729 14.1474 373.509 14.3533C373.293 14.5558 373.03 14.657 372.721 14.657ZM379.232 24.1598C378.433 24.1598 377.74 23.984 377.154 23.6325C376.568 23.2809 376.114 22.7891 375.79 22.157C375.471 21.5249 375.311 20.7862 375.311 19.9411C375.311 19.0959 375.471 18.3555 375.79 17.7198C376.114 17.0842 376.568 16.5906 377.154 16.239C377.74 15.8874 378.433 15.7116 379.232 15.7116C380.031 15.7116 380.723 15.8874 381.309 16.239C381.895 16.5906 382.348 17.0842 382.667 17.7198C382.99 18.3555 383.152 19.0959 383.152 19.9411C383.152 20.7862 382.99 21.5249 382.667 22.157C382.348 22.7891 381.895 23.2809 381.309 23.6325C380.723 23.984 380.031 24.1598 379.232 24.1598ZM379.242 22.6151C379.675 22.6151 380.038 22.4961 380.329 22.2582C380.62 22.0167 380.837 21.6935 380.979 21.2887C381.124 20.8839 381.197 20.4329 381.197 19.9357C381.197 19.435 381.124 18.9822 380.979 18.5774C380.837 18.169 380.62 17.8441 380.329 17.6026C380.038 17.3612 379.675 17.2404 379.242 17.2404C378.798 17.2404 378.429 17.3612 378.134 17.6026C377.843 17.8441 377.625 18.169 377.479 18.5774C377.337 18.9822 377.266 19.435 377.266 19.9357C377.266 20.4329 377.337 20.8839 377.479 21.2887C377.625 21.6935 377.843 22.0167 378.134 22.2582C378.429 22.4961 378.798 22.6151 379.242 22.6151Z" fill="white"/>
</svg>
