<svg width="622" height="226" viewBox="0 0 622 226" fill="none" xmlns="http://www.w3.org/2000/svg">
<path d="M0.759943 111V1.90909H71.7116V18.4751H20.522V48.0916H68.0362V64.6577H20.522V94.4339H72.1378V111H0.759943ZM78.3732 1.90909H102.556L134.943 80.9574H136.221L168.608 1.90909H192.791V111H173.828V36.0533H172.816L142.667 110.68H128.498L98.3484 35.8935H97.3363V111H78.3732V1.90909ZM200.811 111V1.90909H241.72C250.1 1.90909 257.132 3.47159 262.814 6.59659C268.531 9.72159 272.846 14.0185 275.757 19.4872C278.705 24.9205 280.179 31.0994 280.179 38.0241C280.179 45.0199 278.705 51.2344 275.757 56.6676C272.81 62.1009 268.46 66.38 262.707 69.505C256.954 72.5945 249.87 74.1392 241.453 74.1392H214.341V57.8928H238.79C243.691 57.8928 247.703 57.0405 250.828 55.3359C253.953 53.6314 256.262 51.2876 257.753 48.3047C259.28 45.3217 260.044 41.8949 260.044 38.0241C260.044 34.1534 259.28 30.7443 257.753 27.7969C256.262 24.8494 253.936 22.5589 250.775 20.9254C247.65 19.2564 243.62 18.4219 238.684 18.4219H220.573V111H200.811ZM283.844 111V1.90909H324.753C333.134 1.90909 340.165 3.36505 345.847 6.27698C351.564 9.18892 355.879 13.2727 358.791 18.5284C361.738 23.7486 363.212 29.8388 363.212 36.799C363.212 43.7947 361.72 49.8672 358.737 55.0163C355.79 60.13 351.44 64.0895 345.687 66.8949C339.934 69.6648 332.867 71.0497 324.487 71.0497H295.35V54.6435H321.823C326.724 54.6435 330.737 53.9687 333.862 52.6193C336.987 51.2344 339.295 49.228 340.786 46.6001C342.313 43.9368 343.077 40.6697 343.077 36.799C343.077 32.9283 342.313 29.6257 340.786 26.8913C339.259 24.1214 336.933 22.0263 333.808 20.6058C330.683 19.1499 326.653 18.4219 321.717 18.4219H303.606V111H283.844ZM340.2 61.5682L367.207 111H345.154L318.627 61.5682H340.2ZM367.903 111V1.90909H438.854V18.4751H387.665V48.0916H435.179V64.6577H387.665V94.4339H439.28V111H367.903ZM504.802 31.8984C504.305 27.2464 502.21 23.6243 498.517 21.032C494.859 18.4396 490.1 17.1435 484.241 17.1435C480.122 17.1435 476.588 17.7649 473.641 19.0078C470.693 20.2507 468.438 21.9375 466.876 24.0682C465.313 26.1989 464.514 28.6314 464.479 31.3658C464.479 33.6385 464.994 35.6094 466.024 37.2784C467.089 38.9474 468.527 40.3679 470.338 41.5398C472.149 42.6761 474.156 43.6349 476.357 44.4162C478.559 45.1974 480.779 45.8544 483.016 46.3871L493.243 48.9439C497.362 49.9027 501.322 51.1989 505.122 52.8324C508.957 54.4659 512.384 56.5256 515.402 59.0114C518.456 61.4972 520.871 64.4979 522.646 68.0135C524.422 71.5291 525.31 75.6484 525.31 80.3714C525.31 86.7635 523.676 92.392 520.409 97.2571C517.142 102.087 512.419 105.869 506.24 108.603C500.097 111.302 492.657 112.651 483.921 112.651C475.434 112.651 468.066 111.337 461.816 108.71C455.601 106.082 450.736 102.246 447.22 97.2038C443.74 92.1612 441.858 86.0178 441.574 78.7734H461.017C461.301 82.5732 462.472 85.7337 464.532 88.255C466.592 90.7763 469.273 92.6584 472.575 93.9013C475.914 95.1442 479.642 95.7656 483.762 95.7656C488.058 95.7656 491.823 95.1264 495.054 93.848C498.321 92.5341 500.878 90.723 502.725 88.4148C504.571 86.071 505.512 83.3366 505.548 80.2116C505.512 77.3707 504.678 75.027 503.044 73.1804C501.411 71.2983 499.12 69.7358 496.173 68.4929C493.261 67.2145 489.852 66.0781 485.945 65.0838L473.534 61.8878C464.55 59.5795 457.448 56.0817 452.227 51.3942C447.043 46.6712 444.45 40.4034 444.45 32.5909C444.45 26.1633 446.191 20.5348 449.671 15.7053C453.186 10.8757 457.963 7.12926 463.999 4.4659C470.036 1.76704 476.872 0.41761 484.507 0.41761C492.249 0.41761 499.031 1.76704 504.855 4.4659C510.715 7.12926 515.313 10.8402 518.651 15.5987C521.99 20.3217 523.712 25.755 523.818 31.8984H504.802ZM541.679 111H520.586L558.991 1.90909H583.387L621.846 111H600.752L571.615 24.2812H570.763L541.679 111ZM542.372 68.2266H599.9V84.1001H542.372V68.2266ZM0.759943 226V116.909H70.6463V133.475H20.522V163.092H65.8523V179.658H20.522V226H0.759943ZM75.5368 226H54.443L92.8485 116.909H117.245L155.704 226H134.61L105.473 139.281H104.621L75.5368 226ZM76.2292 183.227H133.758V199.1H76.2292V183.227ZM156.572 116.909H180.756L213.142 195.957H214.42L246.807 116.909H270.99V226H252.027V151.053H251.015L220.866 225.68H206.697L176.548 150.893H175.536V226H156.572V116.909ZM298.772 116.909V226H279.01V116.909H298.772ZM306.672 226V116.909H326.434V209.434H374.481V226H306.672ZM397.895 116.909V226H378.133V116.909H397.895ZM419.804 226H398.711L437.116 116.909H461.512L499.971 226H478.877L449.74 139.281H448.888L419.804 226ZM420.497 183.227H478.025V199.1H420.497V183.227ZM500.84 226V116.909H541.749C550.13 116.909 557.161 118.365 562.843 121.277C568.56 124.189 572.875 128.273 575.787 133.528C578.734 138.749 580.208 144.839 580.208 151.799C580.208 158.795 578.716 164.867 575.733 170.016C572.786 175.13 568.436 179.089 562.683 181.895C556.93 184.665 549.863 186.05 541.483 186.05H512.346V169.643H538.819C543.72 169.643 547.733 168.969 550.858 167.619C553.983 166.234 556.291 164.228 557.782 161.6C559.309 158.937 560.073 155.67 560.073 151.799C560.073 147.928 559.309 144.626 557.782 141.891C556.256 139.121 553.93 137.026 550.805 135.606C547.68 134.15 543.649 133.422 538.713 133.422H520.602V226H500.84ZM557.197 176.568L584.203 226H562.15L535.623 176.568H557.197Z" fill="white"/>
</svg>
