<svg width="139" height="1087" viewBox="0 0 139 1087" fill="none" xmlns="http://www.w3.org/2000/svg">
<g clip-path="url(#clip0_261_87)">
<path d="M139 0H0V1087H139V0Z" fill="#700611"/>
<mask id="mask0_261_87" style="mask-type:luminance" maskUnits="userSpaceOnUse" x="0" y="0" width="139" height="1087">
<path d="M139 1087L139 0L0 0L0 1087H139Z" fill="white"/>
</mask>
<g mask="url(#mask0_261_87)">
<path d="M5.29799 380.643C25.692 385.843 47.964 377.929 53.598 367.757C59.232 357.585 67.822 337.91 82.849 337.234C97.876 336.558 145.243 315.085 152.618 305.805C162.144 293.822 163.352 276.98 134.372 254.705C108.731 235.005 96.535 228.032 88.752 236.623C80.969 245.214 106.462 265.79 102.574 282.745C102.574 282.745 100.292 292.128 76.14 313.945C49.853 337.691 66.48 343.562 34.545 354.866C2.60999 366.17 -15.096 375.442 5.29799 380.643ZM79.898 321.257C84.371 314.022 111.741 299.857 106.198 278.149C106.198 278.149 99.042 259.005 95.643 251.32C92.244 243.635 95.105 238.055 102.084 239.411C109.063 240.767 135.547 257.09 143.901 267.259C149.937 274.607 165.235 300.945 129.814 316.887C91.128 334.291 75.425 328.493 79.898 321.257Z" fill="url(#paint0_linear_261_87)"/>
<path d="M88.3047 13.922C120.152 19.802 165.948 41.657 177.217 44.671C188.486 47.685 264.7 83.86 265.774 82.353C266.848 80.846 261.474 76.175 261.474 76.175C261.474 76.175 203.155 34.275 190.274 13.775C177.393 -6.725 202.443 -12.001 202.443 -12.001C202.443 -12.001 160.4 -11.852 147.924 -11.852C135.448 -11.852 145.107 -5.522 140.948 -2.469C136.789 0.583997 132.225 -11.969 132.225 -11.969L77.2147 -12.078C83.9237 6.348 118.81 15.731 122.029 17.429C125.248 19.127 121.223 18.784 121.223 18.784C121.223 18.784 71.0417 4.314 62.5897 -1.563C54.1377 -7.44 61.1137 -11.965 61.1137 -11.965H51.5877C45.2807 -6.085 56.4617 8.046 88.3047 13.922ZM190.054 41.166C190.054 41.166 195.954 46.027 199.313 44.219C202.672 42.411 206.156 42.524 210.449 45.238C214.742 47.952 228.561 56.995 228.16 58.803C227.759 60.611 224.135 60.498 221.719 59.143C219.303 57.788 206.963 46.933 205.755 49.421C204.547 51.909 199.849 50.1 196.229 48.176C192.609 46.252 185.495 44.22 185.361 41.276C185.227 38.332 186.567 38.792 190.054 41.166Z" fill="url(#paint1_linear_261_87)"/>
<path d="M9.32398 17.653C21.534 23.873 32.134 29.297 106.463 36.532C180.792 43.767 220.513 86.047 254.325 108.432C283.135 127.505 286.031 129.667 286.256 129.891L285.988 110.691C285.988 110.691 189.388 53.265 165.768 45.127C142.148 36.989 128.737 27.941 66.481 19.577C66.481 19.577 34.011 16.977 33.743 -12.191H24.351C24.351 -12.191 28.242 6.80096 16.3 5.55896C4.35798 4.31696 7.04198 -11.399 0.198977 -7.21704C-6.64402 -3.03504 -2.89002 11.436 9.32398 17.653Z" fill="url(#paint2_linear_261_87)"/>
<path d="M93.404 39.32C96.535 39.02 95.281 38.12 90.453 38.191C85.625 38.262 84.553 38.039 71.221 36.231C63.904 35.169 56.5196 34.6403 49.126 34.649C45.995 35.549 58.426 36.231 67.016 36.91C75.606 37.589 90.274 39.624 93.404 39.32Z" fill="url(#paint3_linear_261_87)"/>
<path d="M52.257 57.031L91.975 57.558C91.975 57.558 97.43 56.352 77.216 54.77C57.002 53.188 52.17 53.716 52.17 53.716C52.17 53.716 44.387 53.49 54.047 51.455C67.3058 48.7831 80.7797 47.3194 94.303 47.082C107.809 47.082 107.003 46.537 118.543 48.515C130.083 50.493 131.827 53.489 135.317 52.247C138.807 51.005 135.65 49.307 126.93 47.499C118.21 45.691 118.403 41.619 113.443 41.109C108.483 40.599 105.526 40.94 102.976 40.094C100.426 39.248 98.84 39.284 101.003 40.451C103.649 41.8019 106.366 43.009 109.142 44.067C110.663 44.52 114.956 45.351 107.085 45.351C99.214 45.351 79.626 41.13 38.567 50.701C-2.492 60.272 52.257 57.031 52.257 57.031Z" fill="url(#paint4_linear_261_87)"/>
<path d="M250.632 176.483C259.087 176.426 255.932 173.037 265.258 174.052C274.584 175.067 277.869 174.675 280.419 171.169C282.969 167.663 285.897 165.611 285.966 164.011C286.035 162.411 285.966 151.84 285.966 151.84C285.422 151.557 284.982 151.109 284.709 150.561C284.436 150.012 284.343 149.391 284.445 148.787C284.915 146.779 286.658 146.922 285.118 145.564C283.578 144.206 280.724 143.982 279.618 142.088C278.512 140.194 261.705 120.695 248.085 118.151C234.465 115.607 235.608 112.894 233.93 113.12C232.252 113.346 230.375 112.387 231.449 113.856C232.523 115.325 238.762 119.34 230.979 117.136C223.196 114.932 220.447 115.268 219.373 111.369C218.299 107.47 216.399 103.946 211.391 104.435C206.383 104.924 207.454 107 203.654 105.035C199.854 103.07 201.954 104.395 196.811 103.188C191.668 101.981 194.842 105.902 188.359 99.76C181.876 93.618 130.748 66.715 115.587 66.038C100.426 65.361 99.268 61.892 100.113 61.404C100.958 60.916 101.096 58.574 97.475 59.479C93.854 60.384 83.068 58.616 85.668 60.12C87.2753 61.0439 89.0079 61.7301 90.812 62.157C90.812 62.157 124.085 68.186 138.933 75.117C153.781 82.048 203.517 117.775 223.197 122.297C242.877 126.819 284.112 146.112 275.434 160.958C266.756 175.804 246.542 173.844 245.827 174.074C245.112 174.304 242.18 176.539 250.632 176.483Z" fill="url(#paint5_linear_261_87)"/>
<path d="M141.551 70.53C141.831 70.9179 142.206 71.2263 142.641 71.4247C143.077 71.6232 143.556 71.705 144.032 71.662C145.844 71.719 148.732 69.628 144.838 68.496C140.944 67.364 139.807 68.043 137.894 66.801C135.981 65.559 130.046 61.373 128 63.041C125.954 64.709 129.91 63.041 131.79 65.329C131.79 65.329 131.219 65.555 133.266 66.348C135.313 67.141 138.027 67.563 140.242 68.439C142.457 69.315 140.98 70.054 141.551 70.53Z" fill="url(#paint6_linear_261_87)"/>
<path d="M-3.96 28.394C-6.242 31.334 -6.108 33.255 -2.618 31.894C0.871996 30.533 4.358 24.772 -4.9 15.955C-14.158 7.13796 -13.089 -11.059 -13.089 -11.059C-13.218 -11.625 -14.426 -12.078 -15.634 -11.059C-16.842 -10.04 -12.951 -6.53704 -16.705 -5.97104C-20.459 -5.40504 -9.729 17.653 -5.302 21.835C-0.875004 26.017 -1.678 25.454 -3.96 28.394Z" fill="url(#paint7_linear_261_87)"/>
<path d="M-130.821 2.73198C-121.563 7.25398 -104.009 10.757 -85.6708 33.97C-67.3328 57.183 -70.3758 87.741 -27.5768 87.628C15.2222 87.515 93.4922 56.728 130.706 86.121C130.706 86.121 151.276 101.044 115.499 101.497C79.7222 101.95 12.2752 134.203 -39.7878 138.951C-91.8508 143.699 -95.8708 117.924 -103.654 98.482C-111.437 79.04 -112.42 50.099 -181.654 52.962C-250.888 55.825 -272.535 62.306 -270.566 71.501C-268.597 80.696 -249.992 86.725 -211.708 91.095C-173.424 95.465 -183.084 104.359 -197.04 106.167C-210.996 107.975 -266.629 114.457 -296.683 124.257C-326.737 134.057 -375.756 149.427 -375.756 149.427C-375.756 149.427 -378.24 150.368 -377.738 151.301C-377.236 152.234 -374.082 151.274 -374.082 151.274C-374.082 151.274 -306.076 129.154 -296.06 126.214C-286.044 123.274 -281.836 122.414 -281.434 124.519C-281.032 126.624 -289.707 129.154 -282.551 128.4C-275.395 127.646 -263.231 124.066 -265.96 122.145C-268.689 120.224 -260.772 113.968 -209.652 111.145C-158.532 108.322 -177.182 102.781 -174.365 101.536C-171.548 100.291 -164.705 104.023 -156.387 115.554C-148.069 127.085 -159.472 172.945 -75.7468 200.075C-75.7468 200.075 -17.2468 225.096 36.9532 216.958C91.1532 208.82 88.2962 202.788 129.443 227.809C170.59 252.83 184.008 286.141 187.943 296.391C191.878 306.641 191.165 320.959 164.686 333.017C138.207 345.075 115.491 358.339 117.815 390.896C120.139 423.453 123.182 475.756 80.0692 457.518C36.9562 439.28 3.50018 441.391 -9.20282 442.747C-21.9058 444.103 -26.5548 442.747 -16.1788 439.131C-5.8028 435.515 2.7392 436.265 -25.3038 436.605C-53.3468 436.945 -39.2568 432.305 -59.3828 439.545C-79.5088 446.785 -146.954 443.2 -160.907 404.009C-174.86 364.818 -179.156 338.141 -218.507 327.138C-257.858 316.135 -286.535 306.49 -245.207 292.246C-203.879 278.002 -180.939 285.577 -148.607 277.099C-116.275 268.621 -79.5068 266.099 -103.121 229.77C-126.735 193.441 -133.534 194.8 -136.577 187.416C-139.62 180.032 -136.218 183.949 -130.671 183.949C-125.124 183.949 -133.714 178.409 -142.3 169.931C-150.886 161.453 -158.4 148.904 -160.817 151.731C-163.234 154.558 -154.51 161.903 -160.683 158.513C-166.856 155.123 -191.854 123.957 -236.22 128.479C-280.586 133.001 -373.788 152.895 -418.155 170.38C-418.155 170.38 -422.268 173.695 -415.471 172.489C-408.674 171.283 -409.03 165.858 -371.82 158.924C-334.61 151.99 -358.938 162.09 -319.403 147.324C-279.868 132.558 -264.303 134.813 -250.885 135.567C-237.467 136.321 -232.1 133.154 -238.003 133.154C-243.906 133.154 -239.616 129.988 -229.061 130.14C-218.506 130.292 -206.519 131.046 -215.105 133.607C-223.691 136.168 -232.639 133.607 -219.222 136.169C-205.805 138.731 -200.973 131.046 -175.75 154.256C-150.527 177.466 -144.622 185.306 -146.587 188.472C-148.552 191.638 -163.047 189.372 -152.849 194.653C-142.651 199.934 -140.149 195.103 -132.634 200.983C-125.119 206.863 -73.2408 250.873 -151.239 273.333C-170.69 277.083 -190.342 279.7 -210.097 281.17C-239.797 283.13 -322.355 307.284 -274.724 320.17C-227.093 333.056 -215.285 335.093 -200.258 342.102C-185.231 349.111 -176.645 377.936 -167.876 410.04C-159.107 442.144 -116.354 471.386 -40.6828 460.535C34.9882 449.684 37.6752 458.122 53.9552 474.705C70.2352 491.288 71.4882 496.854 102.612 493.387C133.736 489.92 134.455 448.018 134.455 448.018C134.455 448.018 142.685 353.513 184.28 350.346C225.875 347.179 269.08 335.426 248.146 300.608C227.212 265.79 231.239 262.85 171.936 225.998C112.633 189.146 131.148 167.893 138.66 165.405C146.172 162.917 164.689 156.814 168.179 174.222C171.669 191.63 177.751 216.201 210.489 230.067C243.227 243.933 218.226 223.285 220.371 212.996C222.516 202.707 237.412 194.457 254.855 194.457C272.298 194.457 284.642 198.979 285.445 199.771C286.248 200.563 286.029 200.111 286.029 200.111V180.099C286.029 180.099 268.452 175.655 259.595 180.778C250.738 185.901 273.195 186.578 264.335 187.561C255.475 188.544 214.066 182.813 208.699 194.343C203.332 205.873 212.992 218.989 199.842 210.172C186.692 201.355 168.714 196.83 182.67 169.472C196.626 142.114 171.13 138.949 145.101 146.411C119.072 153.873 107.001 176.934 134.101 200.674C161.201 224.414 225.612 262.398 236.075 301.511C246.538 340.624 206.289 343.791 197.164 345.372C188.039 346.953 156.643 340.398 140.007 388.331C123.371 436.264 130.347 452.993 123.37 459.775C116.393 466.557 111.83 467.689 114.245 464.075C116.66 460.461 125.785 437.848 122.296 415.692C118.807 393.536 116.126 374.992 128.196 363.014C140.266 351.036 190.185 335.431 192.868 316.665C195.551 297.899 196.537 286.443 138.574 229.165C138.574 229.165 112.098 200.829 71.3062 204.144C30.5142 207.459 46.6192 220.726 -15.2788 213.491C-77.1768 206.256 -124.586 170.157 -124.586 170.157C-124.586 170.157 -143.371 162.243 -150.079 123.808C-156.787 85.373 -233.536 83.108 -233.536 83.108C-233.536 83.108 -260.907 79.641 -256.075 70.901C-251.243 62.161 -226.736 58.691 -195.252 56.731C-163.768 54.771 -141.941 56.883 -128.523 65.173C-115.105 73.463 -107.055 100.14 -107.055 100.14C-107.055 100.14 -101.149 133.904 -78.4308 140.084C-55.7128 146.264 -34.9588 141.892 -8.83881 137.07C17.2812 132.248 57.5802 113.55 109.68 110.917C138.033 109.487 159.949 108.808 137.139 120.339C114.329 131.87 106.729 118.153 98.1392 126.739C89.5492 135.325 93.0392 132.619 77.2092 131.939C61.3792 131.259 51.7152 126.515 17.6362 136.461C-16.4428 146.407 -32.8068 152.967 -50.7878 152.743C-68.7688 152.519 -91.8438 151.843 -108.748 123.352C-125.652 94.861 -117.337 84.691 -134.509 71.352C-151.681 58.013 -207.588 56.73 -221.366 68.186C-235.144 79.642 -189.702 80.244 -173.066 87.628C-156.43 95.012 -144.621 102.25 -136.927 138.877C-129.233 175.504 -62.3268 195.702 -44.4368 199.771C-26.5468 203.84 9.94818 211.227 53.9562 200.224C97.9642 189.221 128.021 212.434 128.021 212.434C128.021 212.434 130.881 211.529 126.947 209.568C123.013 207.607 99.9322 188.768 48.7692 199.768C-2.3938 210.768 -59.6428 194.341 -64.1158 191.63C-68.5888 188.919 -125.116 171.053 -133.44 140.081C-141.764 109.109 -141.758 86.497 -188.181 78.809C-234.604 71.121 -193.816 63.209 -178.923 63.549C-164.03 63.889 -138.536 65.018 -128.876 79.488C-119.216 93.958 -118.676 147.465 -70.5568 154.247C-22.4378 161.029 11.7382 137.066 34.6362 135.106C57.5342 133.146 65.9442 133.599 92.0612 145.806C118.178 158.013 103.869 146.256 135.353 138.419C166.837 130.582 181.688 132.992 184.731 123.195C187.774 113.398 195.821 113.55 178.825 105.409C161.829 97.268 148.593 80.619 137.862 77.909C127.131 75.199 116.929 65.473 84.7272 66.375C52.5252 67.277 -21.5368 83.559 -39.2478 74.29C-56.9588 65.021 -72.7918 34.045 -81.2478 26.473C-89.7038 18.901 -112.648 -4.38902 -87.1478 -1.67602C-61.6478 1.03698 -45.0178 26.812 -23.6868 26.246C-2.35583 25.68 -13.6218 13.018 -16.5728 6.00898C-19.5238 -1.00002 -19.7778 -12.033 -19.7778 -12.033L-24.9358 -12L-24.2208 -10.156C-24.2208 -10.156 -15.2298 18.785 -22.2098 19.577C-29.1898 20.369 -35.8948 21.611 -61.3878 3.86098C-86.8808 -13.889 -111.301 -1.90302 -111.301 -1.90302C-111.301 -1.90302 -116.936 0.81098 -105.401 8.27198C-93.8658 15.733 -82.8588 25.34 -69.8458 47.948C-56.8328 70.556 -43.9458 83.219 -15.1008 80.958C13.7442 78.697 45.0122 70.221 67.2872 69.202C89.5622 68.183 108.477 69.768 112.368 72.425C116.259 75.082 98.5912 68.788 67.1072 71.877C35.6232 74.966 -4.36183 84.239 -14.9628 84.239C-25.5638 84.239 -51.8628 88.987 -70.9118 54.395C-89.9608 19.803 -100.029 14.376 -115.863 6.80098C-131.697 -0.77402 -122.905 -5.91502 -120.355 -7.21702C-117.805 -8.51902 -117.606 -11.795 -120.155 -11.908C-122.704 -12.021 -130.288 -12.021 -130.288 -12.021C-130.048 -11.6451 -129.893 -11.2213 -129.835 -10.7794C-129.776 -10.3374 -129.815 -9.88798 -129.948 -9.46257C-130.082 -9.03715 -130.306 -8.64606 -130.607 -8.31671C-130.907 -7.98737 -131.276 -7.72773 -131.688 -7.55602C-134.846 -5.85802 -140.08 -1.78902 -130.821 2.73198Z" fill="url(#paint8_linear_261_87)"/>
<path d="M21.3572 289.911C11.8212 294.511 8.10919 296.098 7.13619 296.917C7.08119 296.962 5.10919 297.986 6.11419 298.779C7.31419 299.723 8.83319 298.386 8.83319 298.386C13.1271 295.333 17.9536 293.11 23.0642 291.83C30.7522 290.152 40.8082 284.555 39.1952 278.562C37.5822 272.569 35.9662 268.649 20.5022 265.852C5.03819 263.055 -22.3598 252.922 -27.1358 252.21C-31.0958 251.62 -31.0958 252.71 -31.0958 252.71C-31.0958 252.71 -31.7358 255.287 -30.3908 254.155C-26.4728 250.855 -1.98181 263.055 17.0872 267.61C36.1562 272.165 40.4262 280.719 21.3572 289.911Z" fill="url(#paint9_linear_261_87)"/>
<path d="M102.213 172.276C101.488 172.547 101.513 174.504 102.05 175.499C102.912 177.107 104.59 176.499 105.315 176.229C106.04 175.959 104.943 174.618 104.415 173.617C103.887 172.616 102.934 172.005 102.213 172.276Z" fill="url(#paint10_linear_261_87)"/>
<path d="M58.041 388.334C60.797 387.25 59.72 385.206 59.24 384.328C58.76 383.45 56.471 384.81 54.761 385.471C53.051 386.132 52.008 387.312 52.488 388.191C52.968 389.07 56.337 389.004 58.041 388.334Z" fill="url(#paint11_linear_261_87)"/>
<path d="M130.82 347.159C129.341 348.142 128.46 349.277 128.897 349.745C129.334 350.213 132.273 349.145 133.748 348.157C136.129 346.564 135.143 345.468 134.708 345C134.273 344.532 132.299 346.176 130.82 347.159Z" fill="url(#paint12_linear_261_87)"/>
<path d="M131.721 694.317C132.041 694.639 134.621 692.67 136.474 691.417C138.327 690.164 139.612 688.923 139.296 688.601C138.98 688.279 135.558 689.961 133.703 691.211C130.706 693.23 131.408 693.996 131.721 694.317Z" fill="url(#paint13_linear_261_87)"/>
<path d="M103.381 718.242C105.239 716.994 106.515 715.746 106.199 715.424C105.883 715.102 102.461 716.784 100.606 718.034C97.606 720.054 98.314 720.819 98.631 721.141C98.948 721.463 101.526 719.493 103.381 718.242Z" fill="url(#paint14_linear_261_87)"/>
<path d="M17.642 143.359C26.362 141.664 36.293 139.969 44.611 140.309C52.929 140.649 58.966 141.209 58.296 140.309C57.626 139.409 40.586 138.048 34.547 138.724C28.508 139.4 10.062 143.717 7.714 145.17C6.647 145.829 8.919 145.057 17.642 143.359Z" fill="url(#paint15_linear_261_87)"/>
<path d="M116.459 153.818C107.065 156.305 105.725 155.456 90.965 151.274C76.205 147.092 78.155 143.474 73.659 141.774C69.163 140.074 62.322 140.479 62.322 140.479C59.857 141.17 63.765 142.823 68.946 142.612C74.127 142.401 72.586 143.303 77.552 147.149C82.518 150.995 87.881 155.683 96.604 158.057C105.327 160.431 100.025 160.657 97.404 160.997C94.783 161.337 90.091 161.786 87.744 160.318C85.397 158.85 75.737 158.34 84.995 160.827C94.253 163.314 111.226 159.299 116.528 157.939C121.83 156.579 125.852 151.331 116.459 153.818Z" fill="url(#paint16_linear_261_87)"/>
<path d="M-12.057 168.419C5.29798 159.525 20.952 151.919 47.963 155.155C74.974 158.391 69.611 155.909 61.563 155.229C53.515 154.549 35.084 148.974 4.93698 158.849C-25.21 168.724 -28.605 173.921 -23.063 176.107C-17.521 178.293 -1.95402 180.024 -6.51502 180.477C-11.076 180.93 -10.808 181.231 -5.17302 181.984C0.461979 182.737 38.746 184.546 53.953 182.284C69.16 180.022 55.027 181.53 55.027 181.53C55.027 181.53 30.696 184.544 11.911 181.83C-6.87402 179.116 -29.408 177.31 -12.057 168.419Z" fill="url(#paint17_linear_261_87)"/>
<path d="M69.925 180.25C78.4537 180.231 86.9334 181.541 95.059 184.132C96.759 184.585 95.281 183.492 95.281 183.492C83.163 178.29 69.481 179.536 69.481 179.536C69.481 179.536 57.268 180.516 69.925 180.25Z" fill="url(#paint18_linear_261_87)"/>
<path d="M125.965 198.036C121.665 194.491 110.936 186.205 109.238 181.23C107.54 176.255 109.953 186.353 107.269 184.244C104.585 182.135 81.956 171.133 93.94 170.001C105.924 168.869 119.972 163.445 115.5 162.691C115.5 162.691 108.253 168.191 86.876 167.365C65.499 166.539 77.843 170.606 88.845 174.824C99.847 179.042 122.03 195.924 128.112 200.824C134.194 205.724 130.259 201.578 125.965 198.036Z" fill="url(#paint19_linear_261_87)"/>
<path d="M108.97 168.381C105.928 169.134 105.481 169.244 105.481 169.244C105.481 169.244 98.85 170.576 96.134 171.207C94.427 171.607 91.883 172.261 96.088 174.561C100.293 176.861 105.388 182.624 105.568 181.269C105.748 179.914 98.181 176.003 98.638 174.487C99.229 172.533 99.307 170.606 105.038 170.415C110.769 170.224 112.01 167.627 108.97 168.381Z" fill="url(#paint20_linear_261_87)"/>
<path d="M-41.504 962.969C-43.858 969.245 -50.185 968.789 -60.919 968.789C-68.545 968.789 -56.688 971.714 -46.026 971.889C-32.742 972.109 -16.181 969.858 -3.29201 964.076C9.59699 958.294 20.58 949.661 -3.84301 951.716C-28.266 953.771 -36.061 947.269 -36.061 947.269C-41.22 948.422 -25.677 954.507 -12.115 955.341C1.44699 956.175 -20.868 964.188 -39.515 966.624C-41.98 966.949 -41.693 964.071 -41.262 962.299C-41.337 962.505 -41.406 962.702 -41.504 962.969Z" fill="url(#paint21_linear_261_87)"/>
<path d="M144.216 183.87C146.54 187.787 152.716 189.595 156.648 191.254C160.58 192.913 165.237 198.865 166.488 197.81C167.739 196.755 165.505 195.701 154.056 188.54C142.607 181.379 148.864 178.669 146.001 175.05C143.138 171.431 139.651 178.896 139.651 178.896C139.651 178.896 138.577 181.079 140.275 180.93C141.973 180.781 141.261 178.142 143.675 177.388C146.089 176.634 141.887 179.95 144.216 183.87Z" fill="url(#paint22_linear_261_87)"/>
<path d="M-205.264 23.119C-141.398 31.108 -135.675 38.492 -132.453 42.111C-129.231 45.73 -127.086 55.825 -122.613 53.716C-118.14 51.607 -136.925 38.566 -122.166 47.836C-107.407 57.106 -97.479 95.547 -92.379 111.369C-87.279 127.191 -63.934 134.204 -44.079 134.204C-24.224 134.204 85.534 95.996 96.803 92.83C108.072 89.664 118.003 87.403 89.023 80.847C60.043 74.291 -17.244 97.126 -41.931 92.83C-66.618 88.534 -67.692 76.099 -85.131 42.639C-102.57 9.179 -142.021 5.56 -161.879 -0.546003C-181.737 -6.652 -180.668 -12.078 -180.668 -12.078H-194.801C-199.901 -9.364 -173.153 2.622 -160.542 4.653C-147.931 6.684 -108.749 10.753 -91.842 38.792C-74.935 66.831 -87.73 80.247 -54.989 95.015C-22.248 109.783 6.54899 93.809 39.826 92.149C73.103 90.489 53.6 92 44.299 96.221C34.998 100.442 -10.981 120.185 -50.16 125.46C-89.339 130.735 -94.526 84.765 -94.526 84.765C-94.526 84.765 -100.967 54.317 -126.01 37.889C-151.053 21.461 -184.51 22.364 -221.902 15.73C-259.294 9.096 -261.618 -12.453 -261.618 -12.453H-269.489C-269.489 -12.453 -269.13 15.13 -205.264 23.119Z" fill="url(#paint23_linear_261_87)"/>
<path d="M-64.474 319.147C-121.363 314.847 -154.194 289.98 -203.299 299.703C-252.404 309.426 -204.37 308.219 -187.199 325.177C-170.028 342.135 -143.994 397.747 -118.412 407.547C-92.83 417.347 -91.844 420.284 -32.807 417.269C26.23 414.254 69.293 419.643 79.764 418.288C90.235 416.933 98.01 413.988 101.095 398.843C104.18 383.698 104.944 355.02 128.916 344.166C152.888 333.312 205.752 315.529 171.402 271.666C137.052 227.803 101.634 212.207 87.681 212.656C73.728 213.105 76.676 226.299 2.61401 224.339C2.61401 224.339 -63.4 223.739 -39.963 240.016C-16.526 256.293 63.261 260.363 41.522 285.916C19.783 311.469 -7.58398 323.447 -64.474 319.147ZM28.911 306.711C63.529 283.424 55.211 270.085 41.793 263.979C28.375 257.873 5.03001 253.807 -21.27 242.047C-47.57 230.287 2.882 229.385 2.882 229.385L23.188 228.709C60.039 228.109 76.14 220.416 80.972 217.402C85.804 214.388 91.172 211.677 115.499 225.242C139.826 238.807 167.377 266.39 178.111 290.806C188.845 315.222 152.888 328.338 127.483 342.355C102.078 356.372 99.218 384.709 97.341 393.979C95.464 403.249 91.435 410.031 74.531 412.745C57.627 415.459 22.47 412.745 -27.169 413.877C-76.808 415.009 -80.033 411.163 -108.21 403.477C-136.387 395.791 -148.734 368.207 -161.884 345.372C-175.034 322.537 -174.228 318.695 -189.384 312.472C-201.001 307.716 -170.917 308.294 -150.703 309.647C-131.784 310.916 -128.34 311.681 -91.31 322.08C-54.28 332.479 -5.70399 329.998 28.911 306.711Z" fill="url(#paint24_linear_261_87)"/>
<path d="M53.423 240.617C53.243 236.548 60.4 239.262 76.142 228.407C80.3861 225.294 85.4999 223.59 90.7632 223.536C96.0265 223.482 101.174 225.081 105.481 228.107C105.481 228.107 145.107 251.994 157.985 272.794C170.863 293.594 162.817 307.386 153.692 315.294C144.567 323.202 129.811 331.346 105.659 341.748C81.507 352.15 82.581 376.566 60.578 393.521C38.575 410.476 -54.275 394.427 -68.499 391.713C-82.723 388.999 -81.916 385.394 -80.303 391.044C-78.69 396.694 -28.245 401.216 23.01 405.062C74.265 408.908 82.315 392.626 84.193 386.523C86.071 380.42 95.193 357.808 120.421 339.948C145.649 322.088 169.795 330.902 170.869 298.797C171.943 266.692 131.154 237.075 109.418 224.865C87.682 212.655 82.583 220.909 71.718 227.465C60.853 234.021 41.393 231.421 41.393 231.421C30.2728 230.59 19.1062 230.59 7.98598 231.421C-11.162 232.78 -5.25602 237.15 4.22398 235.494C13.704 233.838 30.7 240.165 42.508 246.194C54.316 252.223 53.599 244.686 53.423 240.617Z" fill="url(#paint25_linear_261_87)"/>
<path d="M82.582 536.532C129.406 529.297 135.446 518.785 138.665 516.411C141.884 514.037 153.692 500.469 138.933 513.131C124.174 525.793 106.333 527.488 82.716 532.236C59.099 536.984 47.83 538.453 38.438 550.662C29.046 562.871 30.738 569.973 31.595 577.113C31.863 579.338 33.831 579.225 33.028 575.23C30.109 560.751 43.135 548.401 45.819 546.93C48.503 545.459 47.696 547.836 47.696 547.836C31.729 562.42 38.396 576.887 38.396 576.887C38.396 576.887 55.927 606.887 47.696 637.632C39.465 668.377 19.251 680.588 9.23199 681.794C-0.787005 683 0.826001 668.381 -7.405 645.621C-15.636 622.861 -34.24 608.995 -58.213 604.921C-82.186 600.847 -97.927 616.83 -125.118 618.489C-152.309 620.148 -178.788 599.503 -178.788 599.503C-185.432 594.359 -202.581 594.377 -159.109 613.068C-115.637 631.759 -92.38 612.768 -70.556 608.695C-48.732 604.622 -31.736 618.155 -31.736 618.155C15.364 656.023 -21.671 687.678 7.577 685.755C36.825 683.832 46.22 651.274 52.123 628.892C58.026 606.51 45.28 584.012 42.731 577.909C40.182 571.806 35.754 543.768 82.582 536.532Z" fill="url(#paint26_linear_261_87)"/>
<path d="M-54.989 588.344C-54.989 588.344 -70.555 585.181 -107.406 601.608C-144.257 618.035 -164.834 586.608 -164.296 572.518C-163.516 552.01 -146.23 529.41 -165.909 508.762C-185.588 488.114 -178.608 499.114 -173.96 503.637C-169.312 508.16 -159.37 516.755 -159.824 529.26C-160.45 546.517 -173.6 569.051 -165.014 584.576C-156.428 600.101 -139.429 616.531 -107.586 604.623C-75.743 592.715 -59.775 590.23 -49.986 592.83C-40.197 595.43 -14.232 598.892 -3.295 636.578C5.742 667.702 6.77001 673.657 19.247 670.151C31.724 666.645 43.404 646.637 44.478 624.708C45.552 602.779 34.678 582.655 34.678 582.655C34.678 582.655 33.178 582.032 33.561 583.674C33.561 583.674 55.385 627.684 29.088 659.035C2.791 690.386 6.729 591.659 -54.989 588.344Z" fill="url(#paint27_linear_261_87)"/>
<path d="M-248.021 140.759C-279.956 137.369 -319.402 157.259 -370.121 166.081C-420.84 174.903 -391.319 182.812 -441.764 181.004C-492.209 179.196 -553.402 189.368 -553.402 189.368L-558.364 198.301C-558.364 198.301 -510.106 192.385 -491.321 189.219C-472.536 186.053 -453.934 185.904 -433.896 193.741C-413.858 201.578 -403.127 196.303 -389.17 188.165C-375.213 180.027 -333.894 169.474 -331.387 169.321C-328.88 169.168 -327.809 166.458 -332.105 167.06C-336.401 167.662 -348.249 163.709 -294.444 160.429C-240.639 157.149 -230.844 166.005 -220.83 175.2C-210.816 184.395 -204.908 199.616 -204.014 223.13C-203.12 246.644 -207.592 247.85 -210.096 252.22C-212.6 256.59 -222.26 257.495 -229.06 260.662C-235.86 263.829 -236.037 266.992 -229.955 264.129C-223.873 261.266 -218.503 261.716 -208.487 257.495C-198.471 253.274 -198.827 249.056 -197.038 243.027C-195.249 236.998 -193.638 216.499 -205.265 189.97C-216.892 163.441 -242.387 159.224 -252.138 157.037C-261.889 154.85 -279.865 157.637 -283.622 157.037C-287.379 156.437 -279.956 156.137 -258.755 153.874C-237.554 151.611 -197.572 170.605 -191.131 200.899C-184.69 231.193 -168.768 253.58 -236.392 270.761C-304.016 287.942 -326.111 320.729 -333.355 336.102C-340.599 351.475 -314.035 365.269 -293.102 356.002C-272.169 346.735 -263.495 358.808 -243.728 354.644C-217.428 349.107 -209.11 368.435 -209.11 368.435C-182.546 424.28 -183.44 449.527 -140.148 470.327C-96.856 491.127 -61.248 482.838 -23.013 477.41C15.222 471.982 9.23197 479.069 4.75897 488.71C0.285972 498.351 -15.276 511.169 -29.588 523.227C-43.9 535.285 -12.951 532.574 -3.64703 527.296C5.65697 522.018 4.75896 514.336 66.481 511.774C128.203 509.212 130.881 499.112 141.081 486.449C151.281 473.786 147.254 425.407 150.473 404.833C153.692 384.259 161.207 379.285 162.817 376.118C164.427 372.951 167.917 362.327 154.499 385.161C141.081 407.995 141.888 445.075 140.546 464.746C139.204 484.417 128.199 498.432 109.146 503.18C90.093 507.928 29.446 510.189 7.71399 514.48C-14.018 518.771 -0.874987 504.308 6.10101 496.393C13.077 488.478 31.239 461.876 -22.073 472.73C-75.385 483.584 -96.497 481.473 -139.073 466.701C-181.649 451.929 -188.519 391.733 -199.181 365.711C-212.197 333.946 -263.581 335.867 -285.589 341.974C-307.597 348.081 -327.989 338.808 -310.815 313.939C-293.641 289.07 -250.971 279.574 -198.915 271.659C-146.859 263.744 -151.415 226.892 -171.544 190.04C-191.673 153.188 -216.09 144.151 -248.021 140.759ZM-351.964 172.336C-359.747 174.147 -386.314 182.89 -393.918 186.205C-401.522 189.52 -405.096 194.87 -417.352 193.667C-424.45 193.033 -431.398 191.251 -437.926 188.392C-438.841 187.957 -439.694 187.402 -440.463 186.742C-441.168 186.093 -439.18 186.102 -436.852 187.186C-436.852 187.186 -429.964 192.16 -415.384 189.673C-400.804 187.186 -357.064 170 -348.295 170.374C-348.295 170.374 -344.178 170.528 -351.964 172.336ZM-161.345 239.222C-162.285 254.708 -168.188 254.595 -174.629 258.554C-181.07 262.513 -186.437 265.454 -190.195 264.884C-193.953 264.314 -189.255 263.978 -189.255 263.978C-189.255 263.978 -187.646 264.431 -173.02 253.353C-158.394 242.275 -170.611 210.561 -173.42 203.953C-179.864 188.805 -185.497 181.004 -185.497 181.004C-188.047 177.331 -189.052 176.652 -188.853 174.222C-188.445 169.298 -176.163 188.94 -171.41 199.657C-166.445 210.847 -160.408 223.736 -161.345 239.222Z" fill="url(#paint28_linear_261_87)"/>
<path d="M276.328 573.397C269.707 565.566 260.228 543.097 249.672 534.975C239.116 526.853 231.962 526.253 219.62 530.021C207.278 533.789 206.738 521.967 204.769 491.521C202.8 461.075 185.983 452.361 175.249 462.557C164.515 472.753 168.99 520.488 113.351 535.416C57.712 550.344 47.696 552.856 60.846 579.679C73.996 606.502 60.307 659.928 20.058 684.756C-20.191 709.584 -9.193 701.163 -12.142 685.644C-15.091 670.125 -9.459 618.03 -86.474 624.459C-86.474 624.459 -134.598 635.766 -169.84 622.907C-205.082 610.048 -216.355 604.877 -222.796 585.369C-229.237 565.861 -235.008 538.445 -243.327 561.5C-251.646 584.555 -234.069 616.4 -201.866 625.715C-169.663 635.03 -142.113 644.633 -142.113 644.633C-142.113 644.633 -129.234 648.621 -91.485 648.621C-53.736 648.621 -31.465 678.328 -35.485 697.835C-39.505 717.342 -41.926 753.257 -41.391 759.021C-40.856 764.785 -38.169 769.221 -31.731 761.458C-25.293 753.695 -22.88 728.65 24.62 702.047C72.12 675.444 64.871 680.688 81.867 654.388C98.863 628.088 134.46 612.269 134.46 612.269C134.46 612.269 178.471 592.469 194.927 583.155C211.383 573.841 225.161 564.091 246.273 576.504C267.385 588.917 273.284 598.231 280.441 600.152C287.598 602.073 292.964 602.958 292.964 602.958C292.964 602.958 280.353 598.6 278.831 597.194C277.309 595.788 243.945 562.316 222.836 567.341C201.727 572.366 157.716 602.811 124.084 612.418C90.452 622.025 88.484 624.83 92.42 616.406C96.356 607.982 96.893 602.218 112.814 601.775C128.735 601.332 139.649 597.343 151.454 593.5C163.259 589.657 196 572.071 203.336 567.785C210.672 563.499 230.707 544.435 251.28 566.159C271.853 587.883 286.168 593.788 286.168 593.788L286.883 590.982C286.883 590.982 266.129 580.488 258.973 568.077C251.817 555.666 240.188 537.042 208.884 558.177C177.58 579.312 160.94 582.859 160.94 582.859C160.94 582.859 154.14 583.598 158.433 578.278C162.726 572.958 189.653 553.302 185.895 526.478C182.137 499.654 171.674 507.854 166.036 517.388C160.398 526.922 140.546 543.988 107.536 552.414C74.526 560.84 102.708 567.266 93.583 581.014C84.458 594.762 76.675 617.295 70.238 640.645C63.801 663.995 59.145 673.158 37.677 685.573C16.209 697.988 6.728 704.488 -8.834 718.081C-24.396 731.674 -31.197 735.521 -29.228 721.039C-27.259 706.557 -12.236 678.179 -40.321 657.488C-68.406 636.797 -90.414 648.474 -130.663 643.3C-130.663 643.3 -139.252 644.188 -176.818 630.739C-214.384 617.29 -225.48 615.519 -234.068 591.132C-242.656 566.745 -226.912 589.211 -222.798 594.832C-218.684 600.453 -214.568 612.862 -175.03 624.092C-135.492 635.322 -127.265 635.325 -110.09 632.221C-92.915 629.117 -61.075 622.764 -40.142 637.69C-19.209 652.616 -15.455 674.784 -14.56 703.752C-14.56 703.752 -14.74 709.662 -4.72 703.752C5.3 697.842 28.912 681.731 45.373 670.352C61.834 658.973 76.142 614.93 69.701 590.991C63.26 567.052 52.801 559.843 73.994 549.977C95.187 540.111 129.094 543.549 156.469 511.037C183.844 478.525 173.639 465.809 183.838 468.469C194.037 471.129 199.76 485.022 201.369 509.405C202.978 533.788 195.469 544.577 211.924 540.145C228.379 535.713 234.107 529.21 245.915 538.075C257.723 546.94 274.36 580.935 285.988 583.89C297.616 586.845 303.519 583.002 303.519 583.002L287.957 580.047C287.957 580.047 282.946 581.231 276.328 573.397ZM158.12 560.946C169.657 546.538 163.62 533.459 170.33 531.246C177.04 529.033 178.243 532.574 177.708 538.892C177.173 545.21 173.013 563.499 151.408 574.139C129.803 584.779 125.508 580.126 129.672 578.908C129.678 578.905 146.582 575.357 158.12 560.946ZM136.12 557.178C139.551 555.23 146.32 548.027 149.002 552.636C150.412 555.064 146.981 561.209 140.759 563.928C134.537 566.647 126.845 566.207 124.044 564.828C116.52 561.122 131.82 559.618 136.12 557.178Z" fill="url(#paint29_linear_261_87)"/>
<path d="M-42.469 485.097C-82.539 490.223 -110.089 488.412 -145.869 473.34C-181.649 458.268 -193.1 417.874 -193.1 417.874C-200.615 414.407 -179.862 449.374 -171.276 459.174C-162.69 468.974 -137.193 486.452 -98.151 490.185C-59.109 493.918 -66.889 488.603 -35.894 487.245C-4.89901 485.887 -25.721 506.484 -48.371 524.097C-74.534 544.445 -7.85001 541.508 -2.88501 549.985C-1.30801 552.678 -1.14201 571.691 -7.71701 570.332C-14.292 568.973 -22.209 556.088 -37.102 551.906C-51.995 547.724 -65.948 544.334 -67.022 538.454C-68.096 532.574 -54.407 522.062 -45.822 509.063C-37.237 496.064 -50.788 498.322 -50.788 498.322C-50.788 498.322 -88.354 499.228 -96.676 498.209C-104.998 497.19 -129.055 488.709 -111.703 495.498C-94.351 502.287 -78.786 501.074 -55.703 500.922C-32.62 500.77 -62.141 522.929 -67.687 533.78C-73.233 544.631 -70.016 544.933 -48.01 550.06C-26.004 555.187 -12.948 570.86 -5.43301 574.78C2.08199 578.7 2.618 563.023 3.153 549.61C3.688 536.197 4.70999 542.976 -8.83101 542.976C-22.206 542.976 -38.441 536.232 -43.808 530.203C-49.175 524.174 -18.135 501.977 -12.408 495.346C-6.681 488.715 -2.39601 479.974 -42.469 485.097Z" fill="url(#paint30_linear_261_87)"/>
<path d="M14.152 626.028C9.37899 621.759 3.01599 613.517 0.599988 608.545C-1.81601 603.573 -3.42501 602.545 -3.69301 604.134C-3.96101 605.723 -1.41201 607.298 2.07599 615.099C5.56399 622.9 14.958 638.499 24.488 635.56C34.018 632.621 31.465 614.194 31.465 614.194C31.331 610.238 27.841 601.308 28.781 609.785C29.721 618.262 29.181 623.654 26.365 628.402C23.549 633.15 18.536 629.945 14.152 626.028Z" fill="url(#paint31_linear_261_87)"/>
<path d="M108.075 722.443C108.075 722.443 107.85 722.666 105.525 726.25C103.2 729.834 110.488 727.763 110.488 727.763C110.488 727.763 159.598 715.351 180.26 714.463C200.922 713.575 237.149 684.756 192.336 678.992C147.523 673.228 108.075 722.443 108.075 722.443Z" fill="url(#paint32_linear_261_87)"/>
<path d="M-108.22 293.161C-108.22 293.161 -108.504 293.061 -111.873 291.088C-115.242 289.115 -107.773 288.24 -107.773 288.24C-107.773 288.24 -57.973 281.216 -38.481 274.913C-18.989 268.61 24.376 278.598 -15.305 298.192C-54.986 317.786 -108.22 293.161 -108.22 293.161Z" fill="url(#paint33_linear_261_87)"/>
<path d="M213.67 823.421C218.365 823.531 227.623 821.421 241.978 807.238C256.333 793.055 261.167 764.231 260.227 759.906C259.287 755.581 262.238 746.386 262.238 746.386C262.238 746.386 260.762 735.302 258.751 763.01C256.74 790.718 243.59 802.91 236.61 809.454C229.63 815.998 219.572 821.312 213.669 820.538C207.766 819.764 202.664 818.766 179.452 806.571C156.24 794.376 126.588 786.953 115.052 783.516C103.516 780.079 127.931 764.786 144.571 758.135C161.211 751.484 184.017 750.487 184.017 750.487C186.296 750.264 181.735 749.156 163.084 751.372C144.433 753.588 122.831 766.003 111.297 773.096C99.763 780.189 93.988 783.736 114.787 786.84C135.586 789.944 158.524 799.478 169.392 803.796C180.26 808.114 208.972 823.308 213.67 823.421Z" fill="url(#paint34_linear_261_87)"/>
<path d="M252.578 900.786C221.717 875.625 230.842 882.941 238.357 884.713C245.872 886.485 251.909 890.921 261.435 888.261C270.961 885.601 265.055 870.305 269.887 857.561C274.719 844.817 278.071 822.424 277.938 809.561C277.805 796.698 275.924 785.618 276.998 775.756C278.072 765.894 279.211 761.938 280.667 760.422C282.123 758.906 283.351 758.539 282.903 757.577C282.903 757.577 280.487 755.805 279.012 758.241C277.537 760.677 274.719 767.219 274.719 788.612C274.719 810.005 276.061 823.972 268.679 848.135C261.297 872.298 269.753 887.594 252.042 885.598C234.331 883.602 204.006 856.225 204.006 856.225C204.006 856.225 160.759 818.425 127.663 825.525C94.567 832.625 107.984 850.204 88.663 861.436C69.342 872.668 61.472 866.756 47.336 876.511C33.2 886.266 4.22499 927.35 -15.99 927.35C-36.205 927.35 -52.397 912.978 -57.898 903.78C-63.399 894.582 -63.934 904.221 -60.983 909.654C-58.032 915.087 -44.748 953.989 -2.08301 942.461C40.582 930.933 47.83 909.543 76.947 907.992C106.064 906.441 87.947 918.298 87.947 918.298C87.947 918.298 42.686 935.33 16.747 960.605C-9.19201 985.88 -52.666 986.905 -70.197 974.2C-70.197 974.2 -73.419 972.872 -71.897 974.939C-70.375 977.006 -46.629 991.339 -20.73 983.473C5.169 975.607 28.912 950.555 41.928 944.792C54.944 939.029 125.428 916.192 104.945 904.371C84.462 892.55 53.736 908.547 31.194 921.183C8.65199 933.819 -11.341 944.237 -25.16 938.804C-38.979 933.371 -44.816 927.276 -44.48 924.616C-44.144 921.956 -40.386 923.616 -36.028 926.779C-31.67 929.942 -20.263 935.37 -5.83701 929.773C8.58899 924.176 38.036 887.157 38.036 887.157C38.036 887.157 46.622 876.073 70.506 870.864C94.39 865.655 97.606 865.544 103.645 858.782C109.684 852.02 110.4 829.001 137.862 830.332C165.324 831.663 191.442 850.357 191.442 850.357C191.442 850.357 221.229 872.599 224.359 876.441C227.489 880.283 220.869 878.806 219.171 877.18C217.473 875.554 200.207 865.652 192.244 863.436C184.281 861.22 187.504 864.321 193.765 866.836C200.026 869.351 223.016 880.431 227.221 884.571C231.426 888.711 274.852 919.189 281.021 925.617C287.19 932.045 300.88 930.052 300.88 930.052L287.195 924.057C287.195 924.057 283.439 925.947 252.578 900.786Z" fill="url(#paint35_linear_261_87)"/>
<path d="M154.499 880.206C144.48 881.386 152.531 916.415 104.586 927.499C56.641 938.583 38.399 956.02 38.399 956.02C38.399 956.02 34.459 959.273 28.017 965.332C21.575 971.391 29.451 975.677 47.876 964.886C66.301 954.095 109.059 955.286 140.899 942.574C172.739 929.862 164.518 879.024 154.499 880.206Z" fill="url(#paint36_linear_261_87)"/>
<path d="M177.218 935.625C178.651 928.825 190.818 939.17 194.752 914.047C198.686 888.924 187.596 901.042 187.596 901.042C187.596 901.042 188.311 921.732 182.944 925.28C177.577 928.828 184.733 914.637 182.944 898.972C181.155 883.307 185.444 885.972 183.659 879.759C181.874 873.546 173.284 871.484 174.359 877.099C175.434 882.714 179.367 897.499 178.293 915.524C177.219 933.549 172.926 942.124 132.138 956.609C91.35 971.094 83.481 968.14 83.481 968.14C77.399 968.14 66.306 971.095 89.204 973.165C112.102 975.235 97.071 967.845 138.581 958.978C180.091 950.111 175.788 942.425 177.218 935.625Z" fill="url(#paint37_linear_261_87)"/>
<path d="M55.211 884.936C55.211 884.936 39.378 898.236 30.521 907.768C21.664 917.3 21.128 919.519 15.226 922.179C9.32398 924.839 14.69 927.055 42.061 907.991C69.432 888.927 102.971 894.468 108.071 897.572C113.171 900.676 118.271 895.136 109.417 893.136C100.563 891.136 79.092 888.036 67.017 892.028C54.942 896.02 30.254 911.759 34.279 907.328C38.304 902.897 58.698 885.6 55.211 884.936Z" fill="url(#paint38_linear_261_87)"/>
<path d="M278.297 686.161C286.168 678.476 286.344 660.002 266.845 650.101C247.346 640.2 194.034 642.118 167.737 656.301C141.44 670.484 135.537 675.52 135.894 678.474C136.251 681.428 139.113 671.674 168.632 658.52C198.151 645.366 251.103 641.52 269.532 655.86C287.961 670.2 272.395 685.269 266.849 690.589C261.303 695.909 239.299 707.437 232.681 716.009C226.063 724.581 220.539 728.602 214.875 730.976C197.23 738.376 172.875 735.632 146.314 740.398C129.726 743.374 114.114 751.705 127.797 747.27C141.48 742.835 152.837 741.688 160.535 740.842C168.272 739.993 180.975 739.07 202.264 738.182C223.553 737.294 233.572 718.969 241.622 712.172C249.672 705.375 270.422 693.846 278.297 686.161Z" fill="url(#paint39_linear_261_87)"/>
<path d="M96.268 738.331C96.268 738.331 109.238 730.497 137.768 728.206C166.298 725.915 180.968 719.931 183.208 719.338C185.448 718.745 186.698 716.16 182.046 718.525C177.394 720.89 162.997 724.147 132.584 727.986C102.171 731.825 93.584 738.995 93.584 738.995C94.299 739.955 96.268 738.331 96.268 738.331Z" fill="url(#paint40_linear_261_87)"/>
<path d="M174.338 974.265C191.716 975.486 199.815 973.491 202.022 970.941C204.229 968.391 193.188 974.041 178.758 969.389C164.328 964.737 161.723 968.725 135.809 973.748C109.895 978.771 103.606 976.704 99.679 982.912C95.752 989.12 154.655 986.162 207.279 982.617C259.903 979.072 270.894 968.724 278.353 954.537C285.812 940.35 263.039 945.669 248.511 941.537C233.983 937.405 241.443 950.107 226.911 969.024C212.379 987.941 130.703 984.684 130.703 984.684C130.703 984.684 131.046 985.128 118.823 982.684C106.6 980.24 156.964 973.048 174.338 974.265Z" fill="url(#paint41_linear_261_87)"/>
<path d="M235.211 989.528C235.211 989.528 227.068 994.853 213.638 997.207C200.208 999.561 130.038 1002.32 130.038 1002.32C130.038 1002.32 91.989 1003.1 79.501 1000.93C67.013 998.762 65.411 1003.04 68.052 1004.52C70.693 1006.01 188.102 1002.66 214.02 1002.72C227.97 1002.75 235.185 998.778 239.174 995.281C242.602 992.277 260.832 974.143 235.211 989.528Z" fill="url(#paint42_linear_261_87)"/>
<path d="M293.771 611.707C293.771 611.707 291.087 608.996 283.84 607.407C276.593 605.818 255.934 590.23 242.249 582.769C228.564 575.308 219.171 576.213 186.163 594.069C153.155 611.925 123.37 618.039 94.927 653.757C66.484 689.475 67.018 689.707 29.451 707.567C-8.11603 725.427 -4.63302 734.7 -16.173 747.815C-27.713 760.93 -32.007 789.415 -43.273 793.715C-54.539 798.015 -58.568 767.261 -49.982 742.392C-41.396 717.523 -43.273 694.692 -44.882 686.547C-46.491 678.402 -65.273 668.23 -79.773 659.187C-94.273 650.144 -102.315 654.213 -127.273 652.404C-152.231 650.595 -166.98 644.943 -166.98 644.943C-171.991 644.115 -161.257 652.104 -134.063 653.912C-106.869 655.72 -98.463 656.173 -88.263 659.187C-78.063 662.201 -53.736 681.795 -51.763 683.907C-49.79 686.019 -47.826 692.197 -49.439 690.99C-51.052 689.783 -57.578 681.947 -80.296 668.834C-103.014 655.721 -114.563 657.227 -122.973 656.625C-131.383 656.023 -155.711 655.719 -119.215 659.788C-82.719 663.857 -73.327 679.988 -57.497 690.612C-41.667 701.236 -50.249 731.084 -58.568 757.764C-66.887 784.444 -63.132 816.998 -45.689 825.815C-28.246 834.632 -30.662 811.797 -19.389 769.744C-8.11602 727.691 22.47 718.644 49.038 711.412C75.606 704.18 83.118 691.064 98.683 672.299C114.248 653.534 133.837 635.673 167.648 615.325C201.459 594.977 213.265 591.357 235.269 594.752C257.273 598.147 288.404 620.3 288.404 620.3L293.771 611.707ZM259.827 599.047C255.668 596.899 238.627 588.309 234.2 586.498C229.773 584.687 212.059 586.385 195.557 594.639C179.055 602.893 134.372 627.422 128.737 631.152C123.102 634.882 103.511 651.352 89.023 674.712C74.535 698.072 50.2 705.912 50.2 705.912C50.2 705.912 34.481 711.863 30.723 712.203C26.965 712.543 29.45 710.961 29.45 710.961C29.45 710.961 46.534 704.533 53.063 700.938C60.04 697.092 72.115 689.029 87.949 668.682C103.783 648.335 106.463 641.782 135.982 622.782C165.501 603.782 207.227 587.63 207.227 587.63C207.227 587.63 226.815 580.621 238.489 585.596C246.443 589.107 254.153 593.147 261.567 597.69C261.567 597.69 263.985 601.195 259.827 599.047Z" fill="url(#paint43_linear_261_87)"/>
<path d="M15.1379 790.47C36.0669 808.256 100.292 760.025 107.089 755.953C113.886 751.881 120.151 748.417 110.667 751.884C101.183 755.351 49.1269 795.901 27.4809 780.521C5.83486 765.141 40.3599 745.101 40.3599 745.101C40.3599 745.101 50.0199 740.127 36.7819 744.501C23.5439 748.875 -5.79514 772.684 15.1379 790.47Z" fill="url(#paint44_linear_261_87)"/>
<path d="M40.181 758.78C45.281 755.164 48.098 752.68 44.611 754.145C44.611 754.145 33.205 759.459 33.471 766.468C33.737 773.477 38.304 777.659 50.38 774.716C62.456 771.773 78.423 764.994 86.34 762.396C94.257 759.798 74.666 764.091 67.555 766.804C60.444 769.517 44.879 773.364 39.512 770.65C34.145 767.936 35.085 762.399 40.181 758.78Z" fill="url(#paint45_linear_261_87)"/>
<path d="M44.722 729.204C36.192 733.496 49.609 730.375 53.128 728.298C56.647 726.221 55.313 724.337 67.331 721.937C79.349 719.537 96.773 707.9 99.238 705.537C101.703 703.174 100.198 703.55 95.307 707.703C90.416 711.856 74.707 716.895 72.468 718.018C70.229 719.141 58.332 721.178 66.441 718.295C74.55 715.412 80.852 712.737 92.853 705.837C104.854 698.937 118.5 684.574 118.604 683.222C118.708 681.87 116.854 682.674 104.282 694.678C91.71 706.682 74.554 713 74.554 713C64.026 716.47 63.278 715.145 53.054 718.779C42.83 722.413 55.091 720.25 59.476 720.942C63.861 721.634 53.253 724.908 44.722 729.204Z" fill="url(#paint46_linear_261_87)"/>
<path d="M221.647 599.145C193.858 597.239 129.688 652.556 129.688 652.556C126.306 656.765 159.429 632.769 173.767 622.745C188.105 612.721 206.283 603.181 211.477 601.835C220.777 599.422 235.495 602.005 235.495 602.005C235.495 602.005 242.856 600.597 221.647 599.145Z" fill="url(#paint47_linear_261_87)"/>
<path d="M36.067 870.507C36.067 870.507 51.094 857.243 64.871 854.829C78.648 852.415 85.265 834.629 88.305 829.207C91.345 823.785 104.944 807.803 131.241 812.329C157.538 816.855 152.53 812.929 148.057 812.329C143.584 811.729 112.815 804.639 101.007 812.175C89.199 819.711 82.043 836.139 77.75 842.32C73.457 848.501 63.082 850.309 50.738 855.429C38.394 860.549 31.774 871.711 36.067 870.507Z" fill="url(#paint48_linear_261_87)"/>
<path d="M-45.153 883.092C-34.328 897.789 -20.817 897.11 -20.817 897.11C-20.817 897.11 -3.64699 894.018 7.80201 879.847C19.251 865.676 19.072 865.08 42.509 845.787C65.946 826.494 64.509 822.273 65.587 815.187C66.665 808.101 58.251 805.995 44.298 806.447C30.345 806.899 24.083 801.321 21.576 800.567C19.069 799.813 20.326 802.679 31.776 806.9C43.226 811.121 55.033 805.393 60.756 814.436C66.479 823.479 49.126 839.153 32.31 850.157C15.494 861.161 -6.86899 894.17 -21.717 894.772C-36.565 895.374 -53.917 868.847 -53.917 868.847C-56.064 866.361 -55.976 868.395 -45.153 883.092Z" fill="url(#paint49_linear_261_87)"/>
<path d="M-17.29 889.083C-26.457 892.097 -30.169 888.029 -30.169 888.029C-30.169 888.029 -35.536 881.886 -35.983 882.457C-36.43 883.028 -36.656 883.057 -36.43 883.586C-36.43 883.586 -31.735 890.142 -26.502 891.501C-21.269 892.86 -15.229 891.614 -6.24204 883.137C2.74496 874.66 10.531 867.416 10.531 867.416C10.531 867.416 12.274 864.139 5.83096 869.116C-0.612044 874.093 -8.11904 886.068 -17.29 889.083Z" fill="url(#paint50_linear_261_87)"/>
<path d="M-0.47021 868.583C-0.47021 868.583 9.05579 860.106 10.7298 858.467C12.4038 856.828 10.3978 856.15 9.65679 857.279C8.4256 859.224 6.93636 860.992 5.22979 862.536C2.27779 865.421 -1.00921 868.077 -0.87521 868.421C-0.74121 868.765 -1.81221 869.206 -0.47021 868.583Z" fill="url(#paint51_linear_261_87)"/>
<path d="M21.667 831.808C16.701 838.59 18.043 839.153 20.593 836.443C23.143 833.733 21.667 829.434 28.242 828.302C34.817 827.17 41.927 824.802 43.403 820.277C44.879 815.752 34.817 815.866 27.035 815.303C19.253 814.74 11.335 813.945 13.215 814.963C13.215 814.963 34.546 816.771 35.486 820.39C36.426 824.009 26.63 825.025 21.667 831.808Z" fill="url(#paint52_linear_261_87)"/>
<path d="M191.089 1048.1C191.089 1048.1 209.658 1038.69 209.332 1035.97C209.006 1033.24 203.142 1029.78 187.181 1033.74C171.22 1037.7 121.059 1036.22 116.172 1036.22C111.285 1036.22 88.4851 1037.45 82.9481 1039.68C77.4111 1041.91 109.333 1038.2 127.899 1039.44C146.465 1040.67 187.182 1034.98 187.508 1039.94C187.834 1044.89 168.942 1055.28 173.176 1057.02C177.41 1058.75 188.812 1049.09 191.089 1048.1Z" fill="url(#paint53_linear_261_87)"/>
<path d="M-31.517 1097.32C-25.487 1088.93 -12.417 1072.17 1.72996 1062.99C21.112 1050.42 37.236 1050.35 47.376 1052.56C57.516 1054.77 69.004 1059.72 84.727 1068.68C100.45 1077.64 125.972 1069.88 148.185 1075.84C156.627 1078.1 162.053 1086.88 165.543 1097.32H169.124C168.67 1095.28 168.21 1093.21 167.743 1091.15C161.69 1064.47 142.943 1065.27 136.143 1066.14C129.343 1067.01 103.709 1069.15 79.913 1061.86C56.117 1054.57 60.644 1039.92 26.594 1048.88C-4.52204 1057.07 -26.522 1082.05 -36.639 1097.32H-31.517Z" fill="url(#paint54_linear_261_87)"/>
<path d="M-64.376 1088.24C-60.001 1082.96 -27.623 1047.07 -18.191 1038.47C-7.741 1028.94 23.071 1023.51 35.643 1023.31C48.215 1023.12 65.155 1026.64 36.462 1026.05C7.769 1025.46 -9.994 1035.39 -17.372 1041.84C-23.601 1047.29 -50.658 1081.05 -61.741 1096.04H-57.063C-48.611 1084.3 -35.285 1065.99 -28.853 1058.12C-19.017 1046.1 3.121 1029.08 46.978 1029.38C90.835 1029.67 181.568 1021.94 213.265 1017.84C244.962 1013.73 240.865 1028.99 234.854 1037.2C228.843 1045.41 215.178 1057.15 193.592 1074.94C182.685 1083.93 179.038 1091.12 178.092 1096.04H182.999C186.999 1090.68 194.791 1082.32 209.988 1070.64C239.5 1047.96 247.698 1036.22 253.711 1022.53C259.724 1008.84 259.721 1006.1 242.233 1009.23C224.745 1012.36 119.259 1021.36 94.667 1021.36C70.075 1021.36 18.151 1019.01 -1.522 1023.31C-21.195 1027.62 -69.841 1087.85 -69.841 1087.85C-69.841 1087.85 -68.747 1093.52 -64.376 1088.24Z" fill="url(#paint55_linear_261_87)"/>
<path d="M-78.518 1069.89C-78.518 1069.89 -54.905 1040.95 -59.198 1018.94C-63.491 996.937 -54.187 997.237 -26.998 996.031C0.190994 994.825 35.973 980.658 49.212 975.531C62.451 970.404 82.129 983.672 88.57 982.465C95.011 981.258 90 993.016 74.97 989.399C59.94 985.782 51.357 982.465 38.119 985.78C24.881 989.095 20.585 988.794 -1.954 995.127C-24.493 1001.46 -45.601 1012.01 -49.894 1032.81C-54.187 1053.61 -78.159 1085.26 -78.518 1069.89Z" fill="url(#paint56_linear_261_87)"/>
</g>
</g>
<defs>
<linearGradient id="paint0_linear_261_87" x1="-3.41656" y1="109.1" x2="158.674" y2="109.1" gradientUnits="userSpaceOnUse">
<stop stop-color="#961E24"/>
<stop offset="1" stop-color="#486B6B"/>
</linearGradient>
<linearGradient id="paint1_linear_261_87" x1="49.9" y1="-90.4937" x2="265.916" y2="-90.4937" gradientUnits="userSpaceOnUse">
<stop stop-color="#961E24"/>
<stop offset="1" stop-color="#486B6B"/>
</linearGradient>
<linearGradient id="paint2_linear_261_87" x1="-3.19086" y1="-130.119" x2="286.256" y2="-130.119" gradientUnits="userSpaceOnUse">
<stop stop-color="#961E24"/>
<stop offset="1" stop-color="#486B6B"/>
</linearGradient>
<linearGradient id="paint3_linear_261_87" x1="48.6317" y1="30.7463" x2="95.1196" y2="30.7463" gradientUnits="userSpaceOnUse">
<stop stop-color="#961E24"/>
<stop offset="1" stop-color="#486B6B"/>
</linearGradient>
<linearGradient id="paint4_linear_261_87" x1="23.2978" y1="24.5297" x2="136.712" y2="24.5297" gradientUnits="userSpaceOnUse">
<stop stop-color="#961E24"/>
<stop offset="1" stop-color="#486B6B"/>
</linearGradient>
<linearGradient id="paint5_linear_261_87" x1="85.2679" y1="-38.012" x2="285.997" y2="-38.012" gradientUnits="userSpaceOnUse">
<stop stop-color="#961E24"/>
<stop offset="1" stop-color="#486B6B"/>
</linearGradient>
<linearGradient id="paint6_linear_261_87" x1="127.428" y1="55.1678" x2="146.773" y2="55.1678" gradientUnits="userSpaceOnUse">
<stop stop-color="#961E24"/>
<stop offset="1" stop-color="#486B6B"/>
</linearGradient>
<linearGradient id="paint7_linear_261_87" x1="-17.4878" y1="-48.1893" x2="1.032" y2="-48.1893" gradientUnits="userSpaceOnUse">
<stop stop-color="#961E24"/>
<stop offset="1" stop-color="#486B6B"/>
</linearGradient>
<linearGradient id="paint8_linear_261_87" x1="-419.388" y1="-432.349" x2="286.056" y2="-432.349" gradientUnits="userSpaceOnUse">
<stop stop-color="#961E24"/>
<stop offset="1" stop-color="#486B6B"/>
</linearGradient>
<linearGradient id="paint9_linear_261_87" x1="-31.248" y1="212.957" x2="39.3674" y2="212.957" gradientUnits="userSpaceOnUse">
<stop stop-color="#961E24"/>
<stop offset="1" stop-color="#486B6B"/>
</linearGradient>
<linearGradient id="paint10_linear_261_87" x1="101.657" y1="168.595" x2="105.555" y2="168.595" gradientUnits="userSpaceOnUse">
<stop stop-color="#961E24"/>
<stop offset="1" stop-color="#486B6B"/>
</linearGradient>
<linearGradient id="paint11_linear_261_87" x1="52.3709" y1="380.056" x2="59.8544" y2="380.056" gradientUnits="userSpaceOnUse">
<stop stop-color="#961E24"/>
<stop offset="1" stop-color="#486B6B"/>
</linearGradient>
<linearGradient id="paint12_linear_261_87" x1="128.785" y1="340.817" x2="135.284" y2="340.817" gradientUnits="userSpaceOnUse">
<stop stop-color="#961E24"/>
<stop offset="1" stop-color="#486B6B"/>
</linearGradient>
<linearGradient id="paint13_linear_261_87" x1="131.42" y1="683.754" x2="139.344" y2="683.754" gradientUnits="userSpaceOnUse">
<stop stop-color="#961E24"/>
<stop offset="1" stop-color="#486B6B"/>
</linearGradient>
<linearGradient id="paint14_linear_261_87" x1="98.3248" y1="710.576" x2="106.247" y2="710.576" gradientUnits="userSpaceOnUse">
<stop stop-color="#961E24"/>
<stop offset="1" stop-color="#486B6B"/>
</linearGradient>
<linearGradient id="paint15_linear_261_87" x1="7.46973" y1="132.847" x2="58.3468" y2="132.847" gradientUnits="userSpaceOnUse">
<stop stop-color="#961E24"/>
<stop offset="1" stop-color="#486B6B"/>
</linearGradient>
<linearGradient id="paint16_linear_261_87" x1="61.5649" y1="122.853" x2="122.1" y2="122.853" gradientUnits="userSpaceOnUse">
<stop stop-color="#961E24"/>
<stop offset="1" stop-color="#486B6B"/>
</linearGradient>
<linearGradient id="paint17_linear_261_87" x1="-25.2656" y1="127.871" x2="68.098" y2="127.871" gradientUnits="userSpaceOnUse">
<stop stop-color="#961E24"/>
<stop offset="1" stop-color="#486B6B"/>
</linearGradient>
<linearGradient id="paint18_linear_261_87" x1="64.1822" y1="175.391" x2="95.8767" y2="175.391" gradientUnits="userSpaceOnUse">
<stop stop-color="#961E24"/>
<stop offset="1" stop-color="#486B6B"/>
</linearGradient>
<linearGradient id="paint19_linear_261_87" x1="75.1656" y1="129.179" x2="131.238" y2="129.179" gradientUnits="userSpaceOnUse">
<stop stop-color="#961E24"/>
<stop offset="1" stop-color="#486B6B"/>
</linearGradient>
<linearGradient id="paint20_linear_261_87" x1="93.796" y1="157.264" x2="110.58" y2="157.264" gradientUnits="userSpaceOnUse">
<stop stop-color="#961E24"/>
<stop offset="1" stop-color="#486B6B"/>
</linearGradient>
<linearGradient id="paint21_linear_261_87" x1="-63.3436" y1="926.822" x2="10.6874" y2="926.822" gradientUnits="userSpaceOnUse">
<stop stop-color="#961E24"/>
<stop offset="1" stop-color="#486B6B"/>
</linearGradient>
<linearGradient id="paint22_linear_261_87" x1="139.316" y1="154.244" x2="166.797" y2="154.244" gradientUnits="userSpaceOnUse">
<stop stop-color="#961E24"/>
<stop offset="1" stop-color="#486B6B"/>
</linearGradient>
<linearGradient id="paint23_linear_261_87" x1="-269.489" y1="-134.178" x2="108.017" y2="-134.178" gradientUnits="userSpaceOnUse">
<stop stop-color="#961E24"/>
<stop offset="1" stop-color="#486B6B"/>
</linearGradient>
<linearGradient id="paint24_linear_261_87" x1="-224.793" y1="41.7792" x2="182.677" y2="41.7792" gradientUnits="userSpaceOnUse">
<stop stop-color="#961E24"/>
<stop offset="1" stop-color="#486B6B"/>
</linearGradient>
<linearGradient id="paint25_linear_261_87" x1="-81.1564" y1="63.342" x2="170.89" y2="63.342" gradientUnits="userSpaceOnUse">
<stop stop-color="#961E24"/>
<stop offset="1" stop-color="#486B6B"/>
</linearGradient>
<linearGradient id="paint26_linear_261_87" x1="-187.754" y1="360.033" x2="146.186" y2="360.033" gradientUnits="userSpaceOnUse">
<stop stop-color="#961E24"/>
<stop offset="1" stop-color="#486B6B"/>
</linearGradient>
<linearGradient id="paint27_linear_261_87" x1="-179.062" y1="351.883" x2="44.5526" y2="351.883" gradientUnits="userSpaceOnUse">
<stop stop-color="#961E24"/>
<stop offset="1" stop-color="#486B6B"/>
</linearGradient>
<linearGradient id="paint28_linear_261_87" x1="-558.364" y1="-184.486" x2="164.451" y2="-184.486" gradientUnits="userSpaceOnUse">
<stop stop-color="#961E24"/>
<stop offset="1" stop-color="#486B6B"/>
</linearGradient>
<linearGradient id="paint29_linear_261_87" x1="-245.381" y1="203.568" x2="303.519" y2="203.568" gradientUnits="userSpaceOnUse">
<stop stop-color="#961E24"/>
<stop offset="1" stop-color="#486B6B"/>
</linearGradient>
<linearGradient id="paint30_linear_261_87" x1="-194.71" y1="286.694" x2="3.41667" y2="286.694" gradientUnits="userSpaceOnUse">
<stop stop-color="#961E24"/>
<stop offset="1" stop-color="#486B6B"/>
</linearGradient>
<linearGradient id="paint31_linear_261_87" x1="-3.71234" y1="576.485" x2="31.7757" y2="576.485" gradientUnits="userSpaceOnUse">
<stop stop-color="#961E24"/>
<stop offset="1" stop-color="#486B6B"/>
</linearGradient>
<linearGradient id="paint32_linear_261_87" x1="105.067" y1="637.159" x2="213.749" y2="637.159" gradientUnits="userSpaceOnUse">
<stop stop-color="#961E24"/>
<stop offset="1" stop-color="#486B6B"/>
</linearGradient>
<linearGradient id="paint33_linear_261_87" x1="-112.746" y1="245.866" x2="0.876312" y2="245.866" gradientUnits="userSpaceOnUse">
<stop stop-color="#961E24"/>
<stop offset="1" stop-color="#486B6B"/>
</linearGradient>
<linearGradient id="paint34_linear_261_87" x1="100.902" y1="678.437" x2="262.238" y2="678.437" gradientUnits="userSpaceOnUse">
<stop stop-color="#961E24"/>
<stop offset="1" stop-color="#486B6B"/>
</linearGradient>
<linearGradient id="paint35_linear_261_87" x1="-72.3054" y1="567.004" x2="300.88" y2="567.004" gradientUnits="userSpaceOnUse">
<stop stop-color="#961E24"/>
<stop offset="1" stop-color="#486B6B"/>
</linearGradient>
<linearGradient id="paint36_linear_261_87" x1="25.7982" y1="804.389" x2="163.462" y2="804.389" gradientUnits="userSpaceOnUse">
<stop stop-color="#961E24"/>
<stop offset="1" stop-color="#486B6B"/>
</linearGradient>
<linearGradient id="paint37_linear_261_87" x1="75.3853" y1="791.073" x2="195.596" y2="791.073" gradientUnits="userSpaceOnUse">
<stop stop-color="#961E24"/>
<stop offset="1" stop-color="#486B6B"/>
</linearGradient>
<linearGradient id="paint38_linear_261_87" x1="13.0712" y1="852.58" x2="114.237" y2="852.58" gradientUnits="userSpaceOnUse">
<stop stop-color="#961E24"/>
<stop offset="1" stop-color="#486B6B"/>
</linearGradient>
<linearGradient id="paint39_linear_261_87" x1="122.563" y1="557.068" x2="283.284" y2="557.068" gradientUnits="userSpaceOnUse">
<stop stop-color="#961E24"/>
<stop offset="1" stop-color="#486B6B"/>
</linearGradient>
<linearGradient id="paint40_linear_261_87" x1="93.584" y1="699.49" x2="185.212" y2="699.49" gradientUnits="userSpaceOnUse">
<stop stop-color="#961E24"/>
<stop offset="1" stop-color="#486B6B"/>
</linearGradient>
<linearGradient id="paint41_linear_261_87" x1="99.4927" y1="902.772" x2="279.816" y2="902.772" gradientUnits="userSpaceOnUse">
<stop stop-color="#961E24"/>
<stop offset="1" stop-color="#486B6B"/>
</linearGradient>
<linearGradient id="paint42_linear_261_87" x1="66.9692" y1="965.577" x2="248.662" y2="965.577" gradientUnits="userSpaceOnUse">
<stop stop-color="#961E24"/>
<stop offset="1" stop-color="#486B6B"/>
</linearGradient>
<linearGradient id="paint43_linear_261_87" x1="-168.173" y1="371.41" x2="293.771" y2="371.41" gradientUnits="userSpaceOnUse">
<stop stop-color="#961E24"/>
<stop offset="1" stop-color="#486B6B"/>
</linearGradient>
<linearGradient id="paint44_linear_261_87" x1="7.82697" y1="699.797" x2="115.497" y2="699.797" gradientUnits="userSpaceOnUse">
<stop stop-color="#961E24"/>
<stop offset="1" stop-color="#486B6B"/>
</linearGradient>
<linearGradient id="paint45_linear_261_87" x1="33.4664" y1="735.497" x2="88.192" y2="735.497" gradientUnits="userSpaceOnUse">
<stop stop-color="#961E24"/>
<stop offset="1" stop-color="#486B6B"/>
</linearGradient>
<linearGradient id="paint46_linear_261_87" x1="41.9311" y1="642.39" x2="118.608" y2="642.39" gradientUnits="userSpaceOnUse">
<stop stop-color="#961E24"/>
<stop offset="1" stop-color="#486B6B"/>
</linearGradient>
<linearGradient id="paint47_linear_261_87" x1="129.447" y1="554.319" x2="236.731" y2="554.319" gradientUnits="userSpaceOnUse">
<stop stop-color="#961E24"/>
<stop offset="1" stop-color="#486B6B"/>
</linearGradient>
<linearGradient id="paint48_linear_261_87" x1="34.7578" y1="757.381" x2="151.646" y2="757.381" gradientUnits="userSpaceOnUse">
<stop stop-color="#961E24"/>
<stop offset="1" stop-color="#486B6B"/>
</linearGradient>
<linearGradient id="paint49_linear_261_87" x1="-55.0166" y1="720.212" x2="65.6796" y2="720.212" gradientUnits="userSpaceOnUse">
<stop stop-color="#961E24"/>
<stop offset="1" stop-color="#486B6B"/>
</linearGradient>
<linearGradient id="paint50_linear_261_87" x1="-36.5188" y1="845.098" x2="10.7458" y2="845.098" gradientUnits="userSpaceOnUse">
<stop stop-color="#961E24"/>
<stop offset="1" stop-color="#486B6B"/>
</linearGradient>
<linearGradient id="paint51_linear_261_87" x1="-1.15399" y1="846.615" x2="11.379" y2="846.615" gradientUnits="userSpaceOnUse">
<stop stop-color="#961E24"/>
<stop offset="1" stop-color="#486B6B"/>
</linearGradient>
<linearGradient id="paint52_linear_261_87" x1="12.9349" y1="794.978" x2="43.5484" y2="794.978" gradientUnits="userSpaceOnUse">
<stop stop-color="#961E24"/>
<stop offset="1" stop-color="#486B6B"/>
</linearGradient>
<linearGradient id="paint53_linear_261_87" x1="82.312" y1="1010.97" x2="209.336" y2="1010.97" gradientUnits="userSpaceOnUse">
<stop stop-color="#961E24"/>
<stop offset="1" stop-color="#486B6B"/>
</linearGradient>
<linearGradient id="paint54_linear_261_87" x1="-36.639" y1="1003.52" x2="169.124" y2="1003.52" gradientUnits="userSpaceOnUse">
<stop stop-color="#961E24"/>
<stop offset="1" stop-color="#486B6B"/>
</linearGradient>
<linearGradient id="paint55_linear_261_87" x1="-69.841" y1="935.044" x2="257.334" y2="935.044" gradientUnits="userSpaceOnUse">
<stop stop-color="#961E24"/>
<stop offset="1" stop-color="#486B6B"/>
</linearGradient>
<linearGradient id="paint56_linear_261_87" x1="-78.518" y1="891.672" x2="91.3197" y2="891.672" gradientUnits="userSpaceOnUse">
<stop stop-color="#961E24"/>
<stop offset="1" stop-color="#486B6B"/>
</linearGradient>
<clipPath id="clip0_261_87">
<rect width="139" height="1087" fill="white"/>
</clipPath>
</defs>
</svg>
