<svg width="388" height="234" viewBox="0 0 388 234" fill="none" xmlns="http://www.w3.org/2000/svg">
<path d="M95.4084 1.90909V111H77.8303L26.4276 36.6925H25.522V111H5.75994V1.90909H23.4446L74.794 76.2699H75.7528V1.90909H95.4084ZM200.92 56.4545C200.92 68.2088 198.719 78.2763 194.315 86.657C189.947 95.0021 183.981 101.394 176.417 105.833C168.889 110.272 160.349 112.491 150.796 112.491C141.243 112.491 132.685 110.272 125.121 105.833C117.593 101.359 111.627 94.9489 107.224 86.6037C102.856 78.223 100.672 68.1733 100.672 56.4545C100.672 44.7003 102.856 34.6506 107.224 26.3054C111.627 17.9247 117.593 11.5149 125.121 7.07599C132.685 2.63707 141.243 0.41761 150.796 0.41761C160.349 0.41761 168.889 2.63707 176.417 7.07599C183.981 11.5149 189.947 17.9247 194.315 26.3054C198.719 34.6506 200.92 44.7003 200.92 56.4545ZM181.052 56.4545C181.052 48.1804 179.756 41.2024 177.163 35.5206C174.606 29.8033 171.055 25.4886 166.51 22.5767C161.964 19.6293 156.726 18.1555 150.796 18.1555C144.866 18.1555 139.628 19.6293 135.082 22.5767C130.537 25.4886 126.968 29.8033 124.376 35.5206C121.819 41.2024 120.54 48.1804 120.54 56.4545C120.54 64.7287 121.819 71.7244 124.376 77.4418C126.968 83.1236 130.537 87.4382 135.082 90.3857C139.628 93.2976 144.866 94.7536 150.796 94.7536C156.726 94.7536 161.964 93.2976 166.51 90.3857C171.055 87.4382 174.606 83.1236 177.163 77.4418C179.756 71.7244 181.052 64.7287 181.052 56.4545ZM265.39 31.8984C264.893 27.2464 262.798 23.6243 259.104 21.032C255.447 18.4396 250.688 17.1435 244.829 17.1435C240.71 17.1435 237.176 17.7649 234.229 19.0078C231.281 20.2507 229.026 21.9375 227.464 24.0682C225.901 26.1989 225.102 28.6314 225.067 31.3658C225.067 33.6385 225.582 35.6094 226.612 37.2784C227.677 38.9474 229.115 40.3679 230.926 41.5398C232.737 42.6761 234.744 43.6349 236.945 44.4162C239.147 45.1974 241.366 45.8544 243.604 46.3871L253.831 48.9439C257.95 49.9027 261.91 51.1989 265.71 52.8324C269.545 54.4659 272.972 56.5256 275.99 59.0114C279.044 61.4972 281.459 64.4979 283.234 68.0135C285.01 71.5291 285.898 75.6484 285.898 80.3714C285.898 86.7635 284.264 92.392 280.997 97.2571C277.73 102.087 273.007 105.869 266.828 108.603C260.685 111.302 253.245 112.651 244.509 112.651C236.022 112.651 228.653 111.337 222.403 108.71C216.189 106.082 211.324 102.246 207.808 97.2038C204.328 92.1612 202.446 86.0178 202.162 78.7734H221.604C221.888 82.5732 223.06 85.7337 225.12 88.255C227.18 90.7763 229.861 92.6584 233.163 93.9013C236.501 95.1442 240.23 95.7656 244.349 95.7656C248.646 95.7656 252.411 95.1264 255.642 93.848C258.909 92.5341 261.466 90.723 263.312 88.4148C265.159 86.071 266.1 83.3366 266.136 80.2116C266.1 77.3707 265.266 75.027 263.632 73.1804C261.999 71.2983 259.708 69.7358 256.761 68.4929C253.849 67.2145 250.44 66.0781 246.533 65.0838L234.122 61.8878C225.138 59.5795 218.036 56.0817 212.815 51.3942C207.631 46.6712 205.038 40.4034 205.038 32.5909C205.038 26.1633 206.778 20.5348 210.259 15.7053C213.774 10.8757 218.55 7.12926 224.587 4.4659C230.624 1.76704 237.46 0.41761 245.095 0.41761C252.837 0.41761 259.619 1.76704 265.443 4.4659C271.303 7.12926 275.901 10.8402 279.239 15.5987C282.577 20.3217 284.3 25.755 284.406 31.8984H265.39ZM387.494 56.4545C387.494 68.2088 385.293 78.2763 380.889 86.657C376.521 95.0021 370.556 101.394 362.992 105.833C355.463 110.272 346.923 112.491 337.37 112.491C327.818 112.491 319.259 110.272 311.695 105.833C304.167 101.359 298.201 94.9489 293.798 86.6037C289.43 78.223 287.246 68.1733 287.246 56.4545C287.246 44.7003 289.43 34.6506 293.798 26.3054C298.201 17.9247 304.167 11.5149 311.695 7.07599C319.259 2.63707 327.818 0.41761 337.37 0.41761C346.923 0.41761 355.463 2.63707 362.992 7.07599C370.556 11.5149 376.521 17.9247 380.889 26.3054C385.293 34.6506 387.494 44.7003 387.494 56.4545ZM367.626 56.4545C367.626 48.1804 366.33 41.2024 363.737 35.5206C361.181 29.8033 357.629 25.4886 353.084 22.5767C348.539 19.6293 343.301 18.1555 337.37 18.1555C331.44 18.1555 326.202 19.6293 321.656 22.5767C317.111 25.4886 313.542 29.8033 310.95 35.5206C308.393 41.2024 307.115 48.1804 307.115 56.4545C307.115 64.7287 308.393 71.7244 310.95 77.4418C313.542 83.1236 317.111 87.4382 321.656 90.3857C326.202 93.2976 331.44 94.7536 337.37 94.7536C343.301 94.7536 348.539 93.2976 353.084 90.3857C357.629 87.4382 361.181 83.1236 363.737 77.4418C366.33 71.7244 367.626 64.7287 367.626 56.4545ZM0.965909 139.475V122.909H88.0043V139.475H54.2862V232H34.6839V139.475H0.965909ZM91.2834 232V122.909H132.192C140.573 122.909 147.604 124.365 153.286 127.277C159.004 130.189 163.318 134.273 166.23 139.528C169.178 144.749 170.651 150.839 170.651 157.799C170.651 164.795 169.16 170.867 166.177 176.016C163.229 181.13 158.879 185.089 153.126 187.895C147.374 190.665 140.307 192.05 131.926 192.05H102.789V175.643H129.263C134.163 175.643 138.176 174.969 141.301 173.619C144.426 172.234 146.734 170.228 148.226 167.6C149.753 164.937 150.516 161.67 150.516 157.799C150.516 153.928 149.753 150.626 148.226 147.891C146.699 145.121 144.373 143.026 141.248 141.606C138.123 140.15 134.092 139.422 129.156 139.422H111.045V232H91.2834ZM147.64 182.568L174.646 232H152.594L126.067 182.568H147.64ZM272.821 177.455C272.821 189.209 270.619 199.276 266.216 207.657C261.848 216.002 255.882 222.394 248.318 226.833C240.789 231.272 232.249 233.491 222.696 233.491C213.144 233.491 204.586 231.272 197.022 226.833C189.493 222.359 183.527 215.949 179.124 207.604C174.756 199.223 172.572 189.173 172.572 177.455C172.572 165.7 174.756 155.651 179.124 147.305C183.527 138.925 189.493 132.515 197.022 128.076C204.586 123.637 213.144 121.418 222.696 121.418C232.249 121.418 240.789 123.637 248.318 128.076C255.882 132.515 261.848 138.925 266.216 147.305C270.619 155.651 272.821 165.7 272.821 177.455ZM252.952 177.455C252.952 169.18 251.656 162.202 249.064 156.521C246.507 150.803 242.956 146.489 238.41 143.577C233.865 140.629 228.627 139.156 222.696 139.156C216.766 139.156 211.528 140.629 206.983 143.577C202.437 146.489 198.868 150.803 196.276 156.521C193.719 162.202 192.441 169.18 192.441 177.455C192.441 185.729 193.719 192.724 196.276 198.442C198.868 204.124 202.437 208.438 206.983 211.386C211.528 214.298 216.766 215.754 222.696 215.754C228.627 215.754 233.865 214.298 238.41 211.386C242.956 208.438 246.507 204.124 249.064 198.442C251.656 192.724 252.952 185.729 252.952 177.455ZM337.29 152.898C336.793 148.246 334.698 144.624 331.005 142.032C327.347 139.44 322.589 138.143 316.729 138.143C312.61 138.143 309.077 138.765 306.129 140.008C303.182 141.251 300.927 142.937 299.364 145.068C297.802 147.199 297.003 149.631 296.967 152.366C296.967 154.638 297.482 156.609 298.512 158.278C299.577 159.947 301.015 161.368 302.827 162.54C304.638 163.676 306.644 164.635 308.846 165.416C311.047 166.197 313.267 166.854 315.504 167.387L325.731 169.944C329.851 170.903 333.81 172.199 337.61 173.832C341.445 175.466 344.872 177.526 347.89 180.011C350.944 182.497 353.359 185.498 355.135 189.013C356.91 192.529 357.798 196.648 357.798 201.371C357.798 207.763 356.165 213.392 352.898 218.257C349.631 223.087 344.907 226.869 338.729 229.603C332.585 232.302 325.145 233.651 316.41 233.651C307.922 233.651 300.554 232.337 294.304 229.71C288.089 227.082 283.224 223.246 279.709 218.204C276.229 213.161 274.346 207.018 274.062 199.773H293.505C293.789 203.573 294.961 206.734 297.02 209.255C299.08 211.776 301.761 213.658 305.064 214.901C308.402 216.144 312.131 216.766 316.25 216.766C320.547 216.766 324.311 216.126 327.542 214.848C330.809 213.534 333.366 211.723 335.213 209.415C337.059 207.071 338.001 204.337 338.036 201.212C338.001 198.371 337.166 196.027 335.532 194.18C333.899 192.298 331.608 190.736 328.661 189.493C325.749 188.214 322.34 187.078 318.434 186.084L306.023 182.888C297.038 180.58 289.936 177.082 284.716 172.394C279.531 167.671 276.939 161.403 276.939 153.591C276.939 147.163 278.679 141.535 282.159 136.705C285.675 131.876 290.451 128.129 296.488 125.466C302.525 122.767 309.361 121.418 316.996 121.418C324.737 121.418 331.52 122.767 337.344 125.466C343.203 128.129 347.802 131.84 351.14 136.599C354.478 141.322 356.2 146.755 356.307 152.898H337.29Z" fill="white"/>
</svg>
